<mxfile host="app.diagrams.net" modified="2024-01-31T09:05:10.699Z" agent="Mozilla/5.0 (Windows NT 10.0; Win64; x64) AppleWebKit/537.36 (KHTML, like Gecko) Chrome/121.0.0.0 Safari/537.36 Edg/121.0.0.0" etag="x33zvfeJzTSjtCcJ8d9_" version="22.1.20" type="device">
  <diagram name="Page-1" id="YPCbOOoVCa40BzgNFZZ-">
    <mxGraphModel dx="1426" dy="785" grid="1" gridSize="10" guides="1" tooltips="1" connect="1" arrows="1" fold="1" page="1" pageScale="1" pageWidth="827" pageHeight="1169" math="0" shadow="0">
      <root>
        <mxCell id="0" />
        <mxCell id="1" parent="0" />
        <mxCell id="y6lDCbBZrQ7oHGHBkASp-36" value="" style="rounded=0;whiteSpace=wrap;html=1;fillColor=none;dashed=1;dashPattern=1 4;" vertex="1" parent="1">
          <mxGeometry x="428" y="290" width="123" height="140" as="geometry" />
        </mxCell>
        <mxCell id="y6lDCbBZrQ7oHGHBkASp-34" value="" style="rounded=0;whiteSpace=wrap;html=1;fillColor=none;dashed=1;dashPattern=1 4;" vertex="1" parent="1">
          <mxGeometry x="217" y="290" width="123" height="140" as="geometry" />
        </mxCell>
        <mxCell id="y6lDCbBZrQ7oHGHBkASp-1" value="" style="image;aspect=fixed;html=1;points=[];align=center;fontSize=12;image=img/lib/azure2/compute/Kubernetes_Services.svg;" vertex="1" parent="1">
          <mxGeometry x="250" y="320" width="60.07" height="53" as="geometry" />
        </mxCell>
        <mxCell id="y6lDCbBZrQ7oHGHBkASp-2" value="" style="image;sketch=0;aspect=fixed;html=1;points=[];align=center;fontSize=12;image=img/lib/mscae/OpenShift.svg;" vertex="1" parent="1">
          <mxGeometry x="458" y="320" width="66.85" height="61.5" as="geometry" />
        </mxCell>
        <mxCell id="y6lDCbBZrQ7oHGHBkASp-3" value="Azure&amp;nbsp;&lt;br&gt;Front Door" style="image;aspect=fixed;html=1;points=[];align=center;fontSize=12;image=img/lib/azure2/networking/Front_Doors.svg;" vertex="1" parent="1">
          <mxGeometry x="354" y="190" width="68" height="60" as="geometry" />
        </mxCell>
        <mxCell id="y6lDCbBZrQ7oHGHBkASp-4" value="Azure Arc&amp;nbsp;" style="image;aspect=fixed;html=1;points=[];align=center;fontSize=12;image=img/lib/azure2/management_governance/Azure_Arc.svg;" vertex="1" parent="1">
          <mxGeometry x="690" y="271.5" width="69" height="52" as="geometry" />
        </mxCell>
        <mxCell id="y6lDCbBZrQ7oHGHBkASp-6" value="" style="shape=image;verticalLabelPosition=bottom;labelBackgroundColor=default;verticalAlign=top;aspect=fixed;imageAspect=0;image=data:image/jpeg,/9j/4AAQSkZJRgABAQEAAAAAAAD/4QAuRXhpZgAATU0AKgAAAAgAAkAAAAMAAAABAAAAAEABAAEAAAABAAAAAAAAAAD/2wBDAAoHBwkHBgoJCAkLCwoMDxkQDw4ODx4WFxIZJCAmJSMgIyIoLTkwKCo2KyIjMkQyNjs9QEBAJjBGS0U+Sjk/QD3/2wBDAQsLCw8NDx0QEB09KSMpPT09PT09PT09PT09PT09PT09PT09PT09PT09PT09PT09PT09PT09PT09PT09PT09PT3/wAARCAHaAdoDASIAAhEBAxEB/8QAHwAAAQUBAQEBAQEAAAAAAAAAAAECAwQFBgcICQoL/8QAtRAAAgEDAwIEAwUFBAQAAAF9AQIDAAQRBRIhMUEGE1FhByJxFDKBkaEII0KxwRVS0fAkM2JyggkKFhcYGRolJicoKSo0NTY3ODk6Q0RFRkdISUpTVFVWV1hZWmNkZWZnaGlqc3R1dnd4eXqDhIWGh4iJipKTlJWWl5iZmqKjpKWmp6ipqrKztLW2t7i5usLDxMXGx8jJytLT1NXW19jZ2uHi4+Tl5ufo6erx8vP09fb3+Pn6/8QAHwEAAwEBAQEBAQEBAQAAAAAAAAECAwQFBgcICQoL/8QAtREAAgECBAQDBAcFBAQAAQJ3AAECAxEEBSExBhJBUQdhcRMiMoEIFEKRobHBCSMzUvAVYnLRChYkNOEl8RcYGRomJygpKjU2Nzg5OkNERUZHSElKU1RVVldYWVpjZGVmZ2hpanN0dXZ3eHl6goOEhYaHiImKkpOUlZaXmJmaoqOkpaanqKmqsrO0tba3uLm6wsPExcbHyMnK0tPU1dbX2Nna4uPk5ebn6Onq8vP09fb3+Pn6/9oADAMBAAIRAxEAPwD2WiiigAooooAKKKKACiiigAooooAKKKKACiiigAooooAKKKKACiiigAooooAKKKKACiiigAqteX1vYW7T3UqxRr1ZjisLX/GdnpG6G3xc3Y42qflX6n+g/SvOdT1a81i4869mZyPuqPur9BXfhsvnW96Wi/P0OariYw0WrOh8Q+Opr8PbaenlWx4Z3A3P+B6D9a5LJ9aWiveo0IUY8sFY8+dRzd2za0HxTd6E+xQstsTloyMfkfWvSdH1+y1uHfayjePvRtwy/h/WvHKdBPLazLNbyNFIv3WU4Nc2KwEK3vLR/wBbmtLESho9Ue60VwugeP0k22+sYRugnX7p+o7fWu3jkSVA8bBkYZBByDXgVqE6MuWaPRhUjNXTH0UUVkWFFFFABRRRQAUUUUAFFFFABRRRQAUUUUAFFFFABRRRQAUUUUAFFFFABRRRQAUUUUAFFFFABRRRQAUUUUAFFFFABRRRQAUUUUAFFFFABRRRQAUUUUAFFFFABRRRQAUUVymv+ObXTd0FjtubkcEg/In1Pc+wrSlSnVlywV2ROagrs39Q1K10u3M95MsSD1PJ+g7155r/AI3utT3QWO63tjwWzh3/AMB9K5/UNSutUuTPeTNLIemei/QdhVevdw2XQp+9PV/gjz6uJc9Fogooor0jmCiiigAooooAK1tE8S32hOBC/mW5PzQuePwPY1k0VE6cKkeWSuhxk4u6dmev6J4ksddiH2d9kwGWhY4Yf4j3Fa/bpXhUcjwyLJG7JIpyrKcEV23h/wAfldtvrHI6C4UdP94f1FeJictlC8qWq7dTvpYpPSejPQKKjgniuYllgkWSNhkMpyDUleU1bRnYFFFFABRRRQAUUUUAFFFFABRRRQAUUUUAFFFFABRRRQAUUUUAFFFFABRRRQAUUUUAFFFFABRRRQAUUUUAFFFFABRRRQAUUUUAFFFFABRRRQAUUUjMFUkkADuaAFqhqesWej25mvJgg/hH8TfQVzniDx5BZ7rfS9s844Mn8C/4muAu724v7kz3czSyHqWPT6egr0sLl06lpVNEctXEqOkdWbmv+NLzV90MG62tTxtU/M31P9BXN06ivcpUYUlywVjz5TlN3bCiiitSQooooAKKKKACiiigAooooAKKKKANLRvEF9oc261kzETlom+63+B9xXpGheKrLXECK3k3OOYXPP4eoryWhHZHDKxVlOQwOCK4sTgadbXZ9zelXlT80e70V51oHj2W222+rbpYxwJgPmX6+o96761u4L23Wa2lWSNujKeDXgV8NUoO0l8z0adWNRXRPRRRWBoFFFFABRRRQAUUUUAFFFFABRRRQAUUUUAFFFFABRRRQAUUUUAFFFFABRRRQAUUUUAFFFFABRRRQAUUUUAFFFFABRRRQAUUx3WJC8jBVAySTwK4vX/HyQ7rfSNsj9DORlR9B3+vStaNCdaVoIidSMFds6XV9dstFg8y7lAY/djXlm+grzfXvFt7rTGIE29rniJTy31Pf6dKxbm5mu52muJWlkbqzHmmV72Gy+FHWWr/ACPOq4mU9FohtOoor0DnCiiigAooooAKKKKACiiigAooooAKKKKACiiigAooooAKvaVrV7o0/m2cpUE/NGfut9R/WqNFTOEZxcZK6HGTi7o9V0HxhZ6yBFIRb3WOY2PDfQ966HmvCBkEEEgg5BHBFdZ4f8d3Fhtg1LdcW44En8a/X1FeLicsavKl9x3UsVfSZ6ZRVWy1C21G3E1rMksbd1P8/SrVeQ007M7E01oFFFFAwooooAKKKKACiiigAooooAKKKKACiiigAooooAKKKKACiiigAooooAKKKKACiiigAooooAKKKZLNHbxtJK6oijJZjgChK+iAfWRrXiOy0OLNxJulIysS8s3+A9zXMa/4/wDvW+jj2Nww/wDQR/U1w8sslxM0sztJIxyzMck16mGy2U7SqaLt1OSrilHSOrNfXPFF9rjlZG8q2zxCh4/E9zWPRRXuQpxprlgrI8+UnJ3buwoooqxBRRRQAUUUUAFFFFABRRRQBPYWMuoXiW8AG5jyT0A9a66LwfYJCFkaV5McsGx+lHhbTPsll9pkXEs4yM9l/wDr9a3q8nE4qTnaLskdlKkkrtas8/1vRH0iZcMZIZPusR09j71mV6RqlgmpWElu2ASMq3o1ecSxPDM8UilXQ7WB7V14Su6sbS3RhWp8jutmJRRRXWZBRRRQAUUUUAFFFFABRRRQBa07VbvSbgTWUzRt3Xs31HevRdA8a2mrbYLrFtdHjaT8rfQ/0NeYUVyYjB0661Vn3NadeVN+XY93ory7QPGt1pe2C83XNqOBk/On0Pcexr0TTtUtNVthNZzCRD19V+o7V4GIwtSg/eWnc9KnWjUWm5dooormNQooooAKKKKACiiigAooooAKKKKACiiigAooooAKKKKACiiigAooooAKKKKACiobm6htIGmuZVjjXqzHAFcF4g8fST7oNIzGnQzkfMfoO31rehh6leVoL5mdSrGmrtnUa74pstDQrI3m3BHywoefx9BXm2teIr7XJCbmTbCDlYV+6P8AE/Wsx3aRy7szOxyWJyTRXv4bA06Gr1ff/I86riJVNNkFFFFdpgFFFFABRRRQAUUUUAFFFFABRRRQAVpeH9MOpagoYfuY/mc+vt+NZgBJAAJJOAB3r0PQ9NGmaekZA81/mkPv6fhXLi63s4abvY1ow53rsjR4HA4A4AFFFFeKdwVyfi7TMMt/CvDfLKB29D/SusqO4gS5t5IZhmOQbSK1o1HSmpIipBTVjzCip7+yfT72S3k6oeD6j1qCvejJSSa2PPaadmFFFFMAooooAKKKKACiiigAooooAKnsdQutMuRPZzNFIO4PB+o7ioKKUoqStJXQJtO6PSvD/jq21Arb6httrk8Bs/I5+vb8a6wHPIrweuj0Hxje6PthmJubUcbGPzKPY/0NePiss3lS+7/I7qWK6T+89WorP0rWrPWIPNs5g+PvKeGX6itCvGlFxbTVmdqaaugooopDCiiigAooooAKKKKACiiigAooooAKKKKACiiigAooooAK5/X/ABbZ6IDED591jiJT0+p7VN4q1dtG0SWeL/XNhI/Ynv8AhXkTu0jl3Ys7HJYnJJr0cDglX9+ey/E5cRXcPdjuX9W1y81qfzLqUlAfliX7q/h/WqFFFfQQhGCUYqyR50pOTuwoooqhBRRRQAUUUUAFFFFABRRRQAUUUUAFFFSW1vJdXKQQjMkjbQKTaSuw30Nvwppn2m6N3Iv7qE/Lnu3/ANbrXaVXsbOOws47eP7qDBPqfX8asV4Veq6k2+nQ9CnDkVgooorEsKKKKAMDxVpn2qzF1GuZYBzjuvf8utcXXqZAIIIyCMEHvXnuu6YdM1BkUHypPmjPt3H4V6eBrX/dv5HLXhZ8yM6iiivROYKKKKACiiigAooooAKKKKACiiigAooooAltbu4sZ1ntZWikU9VP+eK7/wAP+PIbvZb6riCY8CUfcY+/of0rzum1zYjC06695a9+prTqypvQ93Vgygg5B706uJ+H2sy3MU2nTsWMIDRknPy+n4V21fNVqTozcH0PUpzU4qSCiiisiwooooAKKKKACiiigAooooAKKKKACiiigAooooA5H4jQvJoUUi5KxzAtj0PFebV7fe2cV/aS2067o5F2sK8p17wveaHMzMpltSflmUfz9DXt5ZiIqPspOzvoefi6Ur8y2MaiiivYOMKKKKACiiigAooooAKKKKACiiigAooooAK6zwjpnlxtfzL8zDbED2Hc/j0rndLsG1K/jt1ztJy7ei16PHGsUSxoAqKNoA6CuDG1uVci3e50UIXfM+g6iiivKOsKKKKACiiigArM17TBqensij97H80Z9/T8a06KqEnBqS3QpJNWZ5WQQSCMEHBB7UtbvirTPst4LqNcRTnnHZv/AK/WsKvepVFUipLqedKLi2mFFFFaCCiiigAooooAKKKKACiiigAooooAKKKtadpd3q1wILOFpG7t2X6ntUykoLmk7IaTk7I6L4dQu+uTSjOxIcE+5Nel1keHNBj0HTxCpDyud0smPvH/AArWzXy+MrKtWco7Hq0IOEEmLRRRXMbBRRRQAUUUUAFFFFABRRRQAUUUUAFFFFABRRRQAU10WRCjqGUjBBHBp1FAHD6/4ASXdcaQRG/UwN90/T0+lcJPbTWk7Q3ETRSL1Vhg17nWZq+hWOtQeXdxAsB8si8Mv0NenhsylTtGpqvxOSrhVLWOjPG6K3Ne8JX2ikyAGe1z/rFHI+o7Vg17lOrGquaDujglFxdmrDqKKK0JCiiigAooooAKKKKACiiigDtfCVisGmfacZknOSfQCt6uW8M65BFaiyunEZU/Ix4Bz2+tdJ9pg/57xf8AfwV4eIjNVHdHfSa5VYloqMXEJYATREnoA4NSVg01uaBRRRSAKKKKACimtLHGcPIin0ZgKZ9pg/57w/8AfwU7MLkeo2SX9hLbyDhlyD6GvNCChKnqpwa77V9etrG2cJKsk7DCqhzj3PtXAkkkk8knJPrXqYCMlF326HJiGm1bcWiiiu85wooooAKKKKACiiigAooooAKQZJAAyScADvV7StGvdZn8qziLAH5nP3V+pr0fQfB9noyrLIBcXQ/5aOOF/wB0dvr1rjxOMp0FZ6vsbUqEqnku5y2geBbi/wBtxqW+3tzyI+jt9fQfrXoVjp9tptssFpCsUY7KOv19as4oxxXgYjFVK7956dj0adGNNaC0UUVzmoUUUUAFFFFABRRRQAUUUUAFFFFABRRRQAUUUUAFFFFABRRRQAUUUUANYBlIYAg9iK4/X/AcN3vuNL2wTHkx/wADf4H9K7KitKVadKXNB2InTjNWaPDruyuLC5aC7haKQdQw6/4ioa9o1TR7PWLbybyJXH8LdGX6GvOde8G3mj7poN1zajnco+ZfqP6ivew2YQq6S0f4M8+rhpQ1WqOdoptOr0TmCiiigAooooAKKKKAG0YHoPyp1FADRwcjg+o4Ndj4S1OW6jltZ2LmIBkYnnHp+FchXQ+DP+Qhcf8AXP8ArXLi4J0m+xrRk1NHZUUUV4p3BWdrl+2m6VJNH/rCQq57E9/wrRrC8Yf8gYf9dBWtGKlNJ7XJqNqLaOJlkeZy8zs7k8sxzmm4HoPyp1Fe9ZLY88bTqKKYgooooAKKKKACiiigAoorR0fQL7W5ttrHiIHDSt91f8T7ConUjCPNJ2Q4xcnZIzUDOQqgszHAUDOa7Lw/4Cludtxq26GLqIQfmb6+n8/pXU6F4UstEUOq+dc45lfqPp6CtzmvFxOZyleNLRd+p3UsKlrMhtbOCxgWG2iWKNRgKowKnooryW23dnYlYKKKKBhRRRQAUUUUAFFFFABRRRQAUUUUAFFFFABRRRQAUUUUAFFFFABRRRQAUUUUAFFFFABRRRQByfiDwNa6junsNttcnkqB8j/h2PuK88v9OutMuTBeQtFIOmeh+h7ivbuaqajplpqtuYLyFZEPqOR9D2r0MLmE6Voz1RzVcMp6x0Z4pRXT6/4JutN3T2W64th2x86fUd/qK5ivepV4VlzQdzzpwlB2aCiiitSQooooAKKKKACuh8Gf8hC4/wCuf9a56uh8Gf8AIQuP+uf9a58V/CZpS+NHZUUUV4Z3hWF4w/5Aw/66Ct2sLxh/yBh/10Fb4f8Aix9SKnwM4miiivdPPCiiigAooooAKKKKACiON5ZFjjRnkY4CqMk1q6J4avtckBhTy4B96Zxgfh6n6V6Tonhqx0SIeSm+cj5pnHzH/AfSuHE4+FHRavt/mb0qEp67I5jQPADNtuNYyq9Rbqef+BH+gru4LeK2hWKCNY414CqMAVLRXgV8RUryvNnowpxgrJBRRRWJoFFFFABRRRQAUUUUAFFFFABRRRQAUUUUAFFFFABRRRQAUUUUAFFFFABRRRQAUUUUAFFFFABRRRQAUUUUAFFFFAAa5nX/AAXaavumtsW10edyj5W+o/qK6airp1Z03zQdmTKCmrM8T1PSbzSbgw3sLIf4WH3W+hqpXt17Y2+o27QXcSyxt2Yf5xXn2v8AgS4st1xpm6eAcmI8uv09R+te7hsxhUtGpo/wZ59XDOOsdUclRSEEEgggg4IIxilr0zlCiiigArofBn/IQuP+uf8AWuerofBn/IQuP+uf9a58V/CZpS+NHZUUUV4Z3hWF4w/5Aw/66Ct2sLxh/wAgYf8AXQVvh/4sfUip8DOJooor3TzwooooAKKbW5oXhS+1shwpgte8rDr9B3rOpUjSXNN2RUYuTslcx4beW5mWG3jaSRj8qoMk13WgeAFj23GsHe3UQL0H1Pf6Cum0fQLLQ4dtrF85HzSNyzfj/QVq14eJzKU7xp6L8TvpYVR1lqxkcaQxrHGioijAVRgCn0UV5m51hRRRQAUUUUAFFFFABRRRQAUUUUAFFFFABRRRQAUUUUAFFFFABRRRQAUUUUAFFFFABRRRQAUUUUAFFFFABRRRQAUUUUAFFFFABRRRQAUUUUAc9r/hCy1oGVR5F12lUdfqO9eb6tol7os/l3kRCk4WRfut9D/SvaahubWG8gaG4iWWNhgqwyDXdhsfUo6PVHPVw8Z6rRnh1Fdnr/gKW33XGkZkTqYG+8Poe/0rjGRo3KOrK6nlSMEV71HEU6yvF/5nnVKcoPVBXQ+DP+Qhcf8AXP8ArXPV0Pgz/kIXH/XP+tGK/hMdL40dlRRRXhHeFYXjD/kDD/roK3awvGH/ACBh/wBdBW+H/ix9SKnwM4miim17p546pbW0nvp1gtYmlkboqj/PFbeg+Dr3WSssgNtaH+Nhy30H9a9H0rRbLRrfyrOELn7znlm+prz8TmFOjpHVnRSw0p6vRHN6B4Citttxqu2aXqIhyi/X1P6V2SqEUKoAUdAB0p1FeDVrzrS5pu56MKcYKyQUUUVkWFFFFABRRRQAUUUUAFFFFABRRRQAUUUUAFFFFABRRRQAUUUUAFFFFABRRRQAUUUUAFFFFABRRRQAUUUUAFFFFABRRRQAUUUUAFFFFABRRRQAUUUUAFFFFABWHrvhay1xSzr5VwB8syDn8fUVuUVUJyg+aLsyZRUlZo8b1nw7faJJi5j3RE4WVfun/A+xq94M/wCQhcf9c/616jPDHcRNFMiujDDKwyDXOx+E4dMv5bvT9wjkXBh67fp7e1erHMfa03Cas+/c5HhuWSlHYfRR0yD1HWiuc0CsLxh/yBh/10FbtR3fh9tctkhkdooQ4ZmA5OOw/wAaunUjTmpSeiJlFyTSPN7GwudSuRBZwtLIewHA+voK9B8P+Bbaw23Gobbi4HIXHyJ+Hf8AGui03SrTSbcQ2cKxr3PUsfc96uc0sVmM6t4w0Q6WGUNZasAAoAAwB2paKK846gooooAKKKKACiiigAooooAKKKKACiiigAooooAKKKKACiiigAooooAKKKKACiiigAooooAKKKKACiiigAooooAKKKKACiiigAooooAKKKKACiiigAooooAKKKKACiiigAooooAKKKKAK1xYxXHJG1v7wqi2kzbjtkjK9s5rXoq41JLRMlxTKNvpkcRDSHzG7AjgVeooqW23qNJIKKKKQwooooAKKKKACiiigAooooAKKKKACiiigAooooAKKKKACiiigAooooAKKKKACiiigAooooAKKKKACiiigAooooAKKKKACiiigAooooAKKKKACiiigAooooAKKKKACiiigAooooAKKKKACiiigAooooAKKKq3uo22nRrJdyrEjMEDHpk0JNuyBuxaopquHUMpBUjgg9adQAUUUUAFFFFABRRRQAUUUUAFFFFABRRRQAUUUUAFFFFABRRRQAUUUUAFFFFABRRRQAUUUUAFFFFABRRRQAUUUUAFFFFABRRRQAUUUUAFFFFABRRRQAUUUUAFFFFABRRRQAUUUUAFNZ1UgFgCegJ61zev+NLTSN0Nti5uhxtU/Kv1P9BXnd/rN9qV2Lm4uGLqcptOAn09K7sPgKlZXeiOepiIwdt2e1UV51oXj+a3Cw6qrTIOBMv3h9R3ru7HUbbUoBNZzpKh7qen19Kwr4WpQfvrTuaU6sZrRlqiiisDQTvXK/ET/kXB/wBdlrq6q32n22pWxgvIVliPO1q0o1FTqKT6EVI80WkeWaD4rvtEIjBM9r3iY9Poe1ek6Pr9jrcW+0lG8D5o24Zfw/rXNal8OIny+m3DRn/nnL8w/PrXL3WhazoVwJzBNGUPE0J3AfiP6161SGGxesHaRxxlVo6NXR7DSVw3h/x+j7bfWMI3QTr90/UdvrXbxyJKgeNgyMMgg5Bryq2HnRdpI7IVIzV0PooorIsKKKKACiiigAooooAKKKKACiiigAooooAKKKKACiiigAooooAKKKKACiiigAooooAKKKKACiiigAooooAKKKKACiiigAooooAKKKKACiiigAooooAKKM4rLh8Qabcag1jFdRtOvYHg+wPc+1NRclohNpbs1KGAIIPQ0UUhnE+IvAcdzvudJxFKeWhJwrfT0P6VwVzbTWk7Q3MTRSKeVYV7lVDVNEsdZh8u9hD4+6w4Zfoa9LC5jKlaNTVficlXCqWsdGeMV1/w2z/a10OceSOO3Woda8B31iTLYZuoR/CB86/h3/D8qn+HKNHrN4jqysIgCpGMc16GJr062Hk4O5z0qcoVUmj0eiiivnT0wooqnqOp2ulQCa8k8uMsF3YJ5P0oSbdkJuyLlGM9arWuoWt8m+1uIpl/2GBqzQ007ME09jJ1Dw1peo5NxaR7z1dRtb8xVKy8N3WivnSr9mgzzb3Iyv4MOn5V0eKTFaKtNLlvoT7ON72Gxl2jBkTY2ORnOKfRRWZYUUUUAFFFFABRRRQAUUUUAFFFFABRRRQAUUUUAFFFFABRRRQAUUUUAFFFFABRRRQAUUUUAFFFFABRRRQAUUUUAFFFFABRRRQAUUUUAFFFFABUF1crZ2sk7q7LGu4qi5J+gqejrQtxM8q17xleaxuht91tanjap+Zvqf6CucBKMCpIKnIIOMV6X4j8EQ6juutP2wXR5Zeiyf4H3rzq7tLiwuWguomikXqrD/ORX0uCq0JQ5aat3XU8uvConeWvmdZ4f8fTW2231bdNEOBMOWX6+v8AOu+s723v4FmtZlljPRlOa8Qq1p+qXmlT+bZTtE3cDkN9R3rHE5bCp71PR/gXSxTjpLVHttFcVo/xDt5gsWqR+Q/TzF5Q/XuP1rr7e5huoRLbypIjdGU5BrxatCpSdpo74VIzV0yaoRawrcGcRIJiNpcDkipqKyvYsKKKKACuV+If/IuD/rstdVXPeNdOudT0Mw2cXmSCRW25xkCtsM0q0W3pczqpuDSPKo5ZIXDwuyOOjIcEflW1ZeM9ZssAXXnIP4Zl3fr1rKurK5s3K3VvLCw7OpFV6+olTp1Vqk0eUpTg97He2nxKHAvbIj1aJs/oa37Lxlo17gLdrE5/hlG015LTa46mWUZbXRtHFTW+p7rFPFMu+KRJF9VYEVJXhlvdXFq4a2nkiYdCjEYras/G+s2mAbhZ1H8My5z+PWuKplU18DT/AAN44uL3Vj1miuFs/iVGcC9sWX1aJs/oa3rPxfo99gJdrG542y/If1riqYStT+KJvGtCWzNyimpIkihkYMD3BzTq5zUKKKKACiiigAooooAKKKKACiiigAooooAKKKKACiiigAooooAKKKKACiiigAooooAKKKKACiiigAooooAKKKKACiis7WzqA0yU6SIzcjoH9O+Pf604rmaQm7Ibq+u2WiweZdSgMR8sa8s30FY2heOrbVLpre6jFs7N+6JPDDsCexrzm7luJrqR7x5GnzhzJ1BqKvdhldP2dpO7fU8+WLlzaLQ93zSZ4rzPw543n04Jb6huntxwH6un+Ir0Szvre/tlntZVljPRlOa8nEYWpQdpLTudlOtGotCzWfqui2WsweVeQq+PusPvL9DWhRWEZOLunZmjSaszy3W/BF9phaW0DXdsO6j51+o7/UVzPIJB4I4IPavd6xdZ8KadrGXlj8qc/wDLWPg/j6162HzRr3aqv5nHUwiesTyOrFlqF3psnmWdxJC2cnaeD9R3rb1bwNqWnEvbqLuEc7oxhh9V/wAK5x0aNyrqyspwVIwRXrQqUq60aaONxlTe1mdppnxGnjwmpW6yr3ki4P5f/qrsNJ8QafrSn7FLudRlkIwy143XX/Df/kMXX/XEfzrzsbgqUabqRVmvuOmhXm5KLd7npFFFFeGegFFFFADJYY50KSorqeoYZFYl74N0a9yTaiJz/FEdprepKuNScHeLaJcIy3Rwd58Nepsr4/7sy5/UVg3fgzWrTJ+zeco7wtu/TrXrdJXZTzKvHd39TCWFg/I8LmgltnKTRPE46q6lcfnUde6TW8NwhSaJJFPZlBFYt74L0a8yfsvksf4oW2//AFq7aebRfxq3oYSwb6M8nptd3e/DZuTY3w9llX+orn7zwjrNjktZmVR/FEd1dtPGUam0l89DCVCpHoZtrqF3YkNaXU0JHTaxx+VdDYfELU7bC3KRXKDuRtb9K5eSNonKSIyOOqsMEfnRVzw9KqveSZMak4bOx6vofjDT9ZYRAmC4PSOQ9foe9b/NeEAkEEcEHII7V1nh/wAd3Fhtt9S3XFuOBJ/Gv19R+teVicscfepa+R2UsVfSZ6ZRVWx1C21K3We0mWWNu6np9fSrVeQ007NHYmmroKKKKBhRRRQAUUUUAFFFFABRRRQAUUUUAFFFFABRRRQAUUUUAFFFFABRRRQAUUUUAFFFRzTx28TSSuqRqMszHAAoSuBJRXA6/wCP/vW+j/Q3DD/0Ef1NV/C3jWS2kFrq0rPEx+Wdjkoff1H8q7VgK3s/aW+XUw+sQ5uW56NRTUdZEDowZWGQQetOriNznPEnhK31tDNFiG8A4kA4b2b/ABrzPUNNutLujb3kTRuOmeje4PcV7fVLUtKtNXtjBeQrIvY9Cp9j2r0MJj5UfdlqvyOathlPVaM8Vq3p2q3mkz+bZTtGx+8v8LfUd62de8E3mllprQNdWo5yB86/Ud/qK5uvdhUpYiGjTT/rU89xlTfZnpOi+PrO92xagBazHjdnKN+Pb8fzrq1kWVA8ZVlPIIPFeF1f0zXtQ0cj7HcMqZ5jb5lP4f4V51fK4v3qTt5M6aeLa0ke0UVxWl/ES1mwmpQmBuhkT5l/xH611dnf2t/EJLSeOVfVGz/+qvIq4epSfvKx2wqRnsyzWfqOhafqq4vLZJG/vYww/EVo0VnGTi7xdmU0nucFqXw3zl9Nusf9M5hx+YqXwVod/pGsXP223KK0WFcHKnn1FdxSV1SxtWVN05O6ZisPBSUlpYWiiiuQ3CuY8fSyQ6ArxSPG4mXDIcGunrlfiJ/yLY/67LW+F1rRv3M6vwM4208Za1aYAuzMo7SgNn8etb1l8SW4F7Yg+rRN/Q/41wlOr6Kpg6E94r5aHmRrVI9T1ay8baNd4BufIY9pl2/r0rbhuYblA0E0cinurA14dToZpbZ98MrxP6oxX+VcVTKYv4Hb1N44xrdXPdKWvJbLxprNlgG4E6DtMuT+ddFY/EmFsLf2jRnu0R3D8jXDUy6vDZX9DojioPfQ7cUtZWn+ItL1PAtryMuf4GO1vyNalcUoSi7SVjdST2ZWu9OtL5Nt1bRSj/bUGucv/h7ptzlrR5LZz0AO5fyNdZS1pTr1KfwtomVOMt0eVal4G1axy0Ua3UQ7xHn/AL5P9M1zskbxOUkRkcHBVhgivdqpX+kWOqR7Ly2jl9yOR+NejRzWS0qK/mc08Gn8LseQadqt3pNwJrKZo27r2b6jvXo2geNbTVtsF1i2uj/CT8rfQ/0NZGrfDphuk0mfP/TKU/yb/GuNvbC60+Yw3kDwyDoHGM/T1/CuuUcNjVeL978TFOpQeq0PcKK8u0DxrdaXtgvN1zajgZPzp9D3Hsa9E07U7TVbYT2cwkQ9R3X6jtXjYjC1KD95adztp1o1FpuXaKKK5zUKKKKACiiigAooooAKKKKACiiigAooooAKKKKACiiigAooooAKKazBFLMQFAySe1R2t1DewLNbSrLG3RlOQaLOwrk1Y/iTQl1/TjB5rRyId0ZB4z7juK16KqEnCSlF6oGlJWZ4ffWNxpt09tdxmOVDyD39x6g1DXsOu+H7TXrbZMu2VR8koHK/4j2ryzV9Fu9FujDdx4BPySD7rj2/wr6PCY2Ndcr0f9bHl1qDpu61Ro+HPF1zobCGXdPZk8oTyn+7/hXpmn6la6pai4s5VkjPXHUexHY14pVnT9Tu9KuRPZzNG/cDo31HeoxWXxrXlDR/mVRxLho9Ue3UVyeheOrTUNsN9i2uDxkn5G/Ht+P511YYMAVIIPcV4NSlOk7TVj0ITjNXQvaue1vwbp+sZkC/Z7g/8tIx1+o710NFKFSVN80HZjlFSVmjyHV/Cep6QSzRGeEdJIhn8x1FYle8Vh6r4Q0vVcu0PkzH/lpF8p/EdDXrUM16VV80cdTCdYs8lp0NxLbSCS3leJx0ZCVI/Kun1P4f6ja5ezdLpB2HysPw7/hXNXNrPaSGO5hkhcdVdSK9OnWpVl7rT/rsckqc4PVWOg0/x7qtnhZ2S7jHaQYb8x/XNdLYfEPTZ8Ldxy2znuRuX8xXm1FY1MBRqa2s/I0hiJx63Pa7TVLK/UNa3UUoPTawNW68IQsh3KSrDuDiu6+H2p3t1f3FvcXUssSRAqrnOOfWvMxOXOlBzi7pHVSxXO1Frc76iiivMOsKZJEkqFJEV0PUMMg0+ijYDDvPCGjXuS1mkbH+KL5P5cVhXnw1jOTZXroeyyru/UV3NFdFPF1ofDIylRhLdHlF54H1m03FYEuEHQxNyfwNYdxaz2rlbmCSJgejqRXudRywRToVljR1PZhkV2082mtJpP8AAwlhIvZ2PDKK9XvvBOjXuT9m8hz/ABQnb+nSudv/AIbzplrC7WQdklGD+Y/+tXdSzKjPR6HPLCzW2pxP861dP8TarpmBb3bGMf8ALOT5l/Xp+GKiv9B1LTM/a7ORUH8YG5fzFZ1dbVKsujRjeUH1TPQdM+I0MmE1K2aI95IvmH5df511tlqdpqMQks7iOVf9k5x+FeJ0+3uJbWYS28rxSA5DIcEVwVsrpy1puz/A6IYuS0lqe50V5zo/xCubfbFqUf2hB/y0Xh/8D+ldzpmr2WrQ+ZZTrIO65wy/Udq8ithatH4lp36HbCtCezL1Vb2wttRgMN3CkqHswz/+qrVFc6bTujRpNanneufD+WHdPpLGVByYGPzD6HvXK2l5eaPeGS3kkt5k4ZSP0Ir26sTXvC9nrkZLqIrgD5ZlHP4+or1MPmLtyVldHJUwy+KGjMzQPHVtqG231DbbXJ4DZ+Rz7HsfY11gIIyDkGvGNY0W70W48m7j4P3JB91/p/hWnoHjG80dlhmLXNqONjH5l+h/pWlfL4zj7Sg9OxNPEuL5ah6tRVTT9Qg1O0S5tnDxuOD/AENW68dpp2Z2ppq6CiiigYUUUUAFFFFABRRRQAUUUUAFFFFABRRRQAUUUUAcx49v3s/D7RxsVadxHkeneuJ8M+JptBudpzJaOfnjz09x/nmu38dae994fd4lLPAwkwO47/pXlle7l9OnVw7g1fXU87EylGomj3CyvYL+1S4tZFkicZDCrFePaD4iutBuN0R3wMfniJ4b6eh969R0jWrTWrUTWkgOPvIfvKfQivOxWDnQd913OqlXVRW6mjVW+sLfUrZoLqJZI2HII/l6VaorjTad1ubNJqzPL/EHgi603dPY7ri2HOMfOn19R7iuYr3Y5rnNd8GWOrbpYQLa5P8AGg4b6j+texhsztaNX7ziq4XrD7jyqtjR/FGo6MQsMvmQj/llJyv4en4UzV/DuoaI5+1QkxdpU5U/4fjWVXq2p149GmcfvU32Z6jpPjvTr/CXR+yTHjDn5T9G/wAa6VJFkjDRsrKRkEHIrwmr2n6zf6W+bO6kjGeVzlT+Brzq2VRetJ28mdVPFtaSR7XRXn+n/EhxhNRtQ3rJCf6GuosPE+lalgQ3aBz/AAP8p/I15dXCVqXxI64VoT2ZsVBc2dvdxlLiGOVPR1BqYEMAQcg96WsLtPQ0tc5a/wDh/pd1lrfzLVz/AHDlfyNc3ffD3UrbLWskVyg5wDtb9a9MxRXXTx9enpe68zGeHhLpY8Su9LvrAkXdpNFjuy8fn0rpvhv/AMhi6/64j+dejMquuGAIPY1Xg0yztrhp4LaKOVxhmRcZrermLq0nTktzOGF5JqSexaooorzDrCsDxfqlzo+ji4s2VZBKo+YZBBrf6CuU+If/ACLY/wCuy1thoqVWKeqbM6rag2jIs/iTMuBe2auO7RNj9DXRWPjXR77Cm4MDn+GVdv69K8opte7Uy2jPbQ8+OKmt9T3WKaOZA8UiSKejKcg1JXh1te3Nm4e1uJYWHdGIrobDx/qlrhboR3KDruG1vzFcFTKqkdYNM6YYuL+LQ9QormNO8d6VfYWdntZDxiUcf99CujimjnQPE6up6FTkV51SlOm7TTR0RnGa0Y8gEEEZB7Vial4R0rU8tJbiKQ/8tIvlNblFKFSUHeLsOUVJao811T4fX1rl7CRbqMfwn5XH9D+lcrcW8trMYriJ4pF6q4wRXudU7/SbPVIfLvLdJV7EjkfQ9q9Ohmk46VFdfictTCJ6x0PFafbXE1pOs1vK0Ui9GU4NddrXw+nt902lv56D/lk3Dj6Hv+lcdJG8UhjkRkkU4KsMEV69KvSrr3XfyOOdOVN66HeaD8QA5W31gBT0E6Dg/UdvqK7eKVJo1kidXRhkMpyDXhla+g+JrzQpAEYy2x+9Cx4/D0NefistUrypaPsdFHFNaS1Xc9gorO0fWrTWrYTWkmcfeQ/eU+hrRrxJRcW1JWZ3ppq6Kl/p1tqdq1vdxrJG3Y9R7j0NeW+I/DNxoNxuG6W1c/JJjp7H3/nXruKhurWG8t3guEWSNxhlI4IrqwuLlQl3T3RlWoqovM4D4c3zpf3NmSfLdPMUf7Q/+tXolcr4e8JvomvXVwHD2xTbCc8jJ5Brq6WNnCpVcobMKEZRhaQUUUVymwUUUUAFFFFABRRRQAUUUUAFFFFABRRRQAUUUUAIyhlIIBB7GuD8ReAyzvdaRjJO5rcnj/gJ/pXe0VrQxE6MuaDIqU4zVmeEyxSW8jRTI0cinDKwwRU1jfXGm3S3FpK0Ug7jofY+or1nWvDtjrkWLiPbKOFlXhh/iPY15trnhi+0Jy0i+bbk/LMg4/H0Ne9h8bTxC5ZaN9H1POqUJU3dbHZ+H/HNtqAWDUdttc9AxOEf8ex9jXWAhlyDkGvB63dF8W6jo2Iw/n24/wCWUh6fQ9q5sTll/epfca0sW1pP7z1yisHR/F+m6vhBJ5E5/wCWcpwfwPQ1vV5E6coO0lZnbGSkrpjXRZEKuoZSOQR1rmNX8Cadf7pLXNrKf7gyp+q/4YrqaKdOrOm7wdhShGSs0eRap4R1XS8s0BniH/LSHn8x1FYnRiDwR1B4xXu9ZepeHdM1XJurVC5/5aKMN+Y/rXqUc1a0qL5o5Z4TrFnjtNru9Q+G7LltOu8jtHMP6iuZv/Deq6cT59lIUH8cY3j9K9Kni6NXaSv9xyzozhuiGx1zUdPYfZb2ZFHO0ncD+BrorL4i38WBeW0U6/3l+U/4Vx/qO460tOphaNT4ooUas4bM9OsvH+k3OBMZbZj13rkfmK3rXVLK+XNrdQy+yuDXidICyEMpIYcgg4xXFUyqm9YNo3jjJLdXPd6WvHLTxNq9jgRX0pUfwyHeP1rdsviReR4F5aRTDuYztNcVTLK0fh1N44uD30PRqK5ez+IGkXOBMZbZj/z0XgfiK37XUbS+UNa3MUoIz8jA1xVKNSn8SaN41Iy2ZZqlqel22r2htrxC8RIbAJHIq7RWabi00ymk1ZnD3nw2gfLWV7JGeyyruH5j/wCvXO33gnWLLJFuLhB/FCc/p1r1qiu6nmNeG7v6mEsLTeyPCZYpbdyk0bRuOquMYpK9uurC2vU2XVvHMvo6g1zeofD3TrjLWbyWrnoAdy/ka9ClmsJaTTX4o5p4OS+F3PNatWGqXumSB7K5kiPdQcg/hWpqfgvVtN3OIhcxD+KHk/8AfPX+dYBBQlWBDA4IIxiu+M6dZaNNHO4ypvszu9J+IvSPVYPbzYh/Nf8AD8q7Kx1G01GES2c6Sof7p6fUdq8TqW0vLiwnE1pM8Mg7qev+Irhr5ZCWtPR/gb08VJfFqj3KiuE0P4gqxWDWFCHoJ0HB+o7fhXbQTxXESywyK6NyGU5Brxa1CpRdpo7oVIzV0yWsjWvDllrkZFxHtmA+WVRhh/iPY1rUtRCcoPmi7MtxUlZnj2ueG73Q5v3y+ZAT8syjj8fQ1k17lPBHcwNFOiyRuMMrDINeceKPBkmm77vTlaS16tH1aP8AxH8q9zCZgqloVNH37nn1sM46x2Oc0/UrnS7xbmzkKSL19GHofUV6n4d8SW+vW/y4jukH7yIn9R6ivIq0tCtdSudRjbSVfz4z98cBfqfT2rfG4anVi5N2a6mdCrKErbp9D2eio7fzfIj+0bfN2jfs6Z9qkr5o9UKKKKACiiigAooooAKKKKACiiigAooooAKKKKACiiigAooooAKKKKACmvGsiFHUMpGCCODTqKAOH8QeAUm3XGkbY36mAnCn6Ht9OlcHPbTWk7Q3MTRSKeVYc17pWZrGhWWtweXdxAsB8si8Mv0NenhcylTtGpqvxOSrhVLWOjPG62dL8WarpOFSczRD/llL8wH07in694SvtFJkAM9rniVB0+o7fyrBr2U6OIhfRo4vfpvsz0vTfiFYXJCXqNaueN33l/MdPxrp7a9t72MSW08cqHoUbNeH0+3uJrWQSW8rxODnchxXDVyqEtYO35G8MXJfErnudFeWWHjvV7TCyulyo7SDB/MV0lj8RrCbAvIJbdvUfOK86pl9eHS68jpjiYS62OworPstc07UMfZbyGQnou7B/I81f/GuNxcd1Y3TT2KF7oenahn7VZwyN/e24P5jmufvPhzYTZNpPLbsegPzj9ef1rsKK0p4irT+GTREqUJbo8vvfh/qtvk25iuF7bW2n9awrvSr6xOLqzmi9yhwa9tprKGGCAQexrup5rVj8STMJYSL20PCMinV7He+G9Kv8m4soS395RtP5isG8+HFlLk2lzLAeyt84/xrup5pSl8SaMJYSa21POqEdoyGRmVhzlTiumvfh/q1tkweVcqOm1tpP4GsG7028sDi7tZoecZZDg/jXZCvSqfC0zCVOcd1Y0LHxbrFhgJeNKg/hmG/9TzXSWHxIU4XULQr/txHI/I//XrgadWdTB0Km8Vfy0KjXqR6nsen+JNL1Pi2u4y5/gY7W/I1p5rwj0Pccg+la+m+KtV0vAhumkjH/LOX5h/9avOq5S96b+TOmGM/mR7DRXG6X8Q7S42x6hE1s5/jHzIf6iutt7qG6hEtvKkiN0ZDkGvMq0KlJ2mrHXCpGavFktZWqeHtO1cH7VbKXx/rF4Yfj/jWpS1nGUou8XYpxUlqjzPWPAF5Z7pdPf7VEP4CMOP8f88VykkbROyOrI6nBVhgivdqydY8OWGtRn7TEFlA+WVeGH49/wAa9XD5nKPu1dV36nHUwiesNDx+tPRfEN9oc2baTdETlomPyt/gfcVPrvhS+0MmQjz7XtKo6fUdqxa9dOliIaWaZxtSpvsz1/QvEdnrkOYW2TqPnhY/MP8AEe9a4rwu3nltZ0mt5GjkQ5VlPIr0rwv4xTVdtpfFYrzseiy/T0PtXiYzL3SvOnqvyO6hiVPSW51dIQGBB5BpaK806zkL3wBZ3WrC5SRobduZIUHU+x7CulsdPttNthBaRLFGvZR/P1q1RWs61SaUZO6REacYttIKKKKyLCiiigAooooAKKKKACiiigAooooAKKKKACiiigAooooAKKKKACiiigAooooAKKKKAEZQwIIyD2Nc3qfgbS9Qy8aNayn+KLgZ/wB3pXS0VdOpOm7wdiZQjJWaPLtS8BapaZa32XSDptOG/I1ztxbTWshjuIXicfwupWvc6guLS3u4zHcwxyoequoIr0aOazWk1c5Z4RP4XY8Por1C+8BaRd5MKPaue8Z4/I/0xXPX3w5vostZ3EU49G+Qn+lehSzGhPd2fmc8sNNdLnIVfsvEGqWGBbX0yqOik7h+RpL3QtT0/P2qymRR/EBuH5is/uR3HUGur93VXRox9+D7M6+0+I2oRYF1bwzjuRlDW9Z/EPS7jAuEmtmP95dw/MV5pRXNUy+hPpb0NY4moutz2iz1rTr8A2t7DJnoA2D+VX68HHByOD6jitKy8Q6rp+BbX0wUdFY7h+RriqZS/sS+83jjP5key0V5zY/Ee9iwt7bRTjuyHY3+H8q6Ox8d6Pd4EkrWzHtKMD8xxXDUwVenvG/odEcRCWzOkprIsilWUMp6gimQXUN0geCVJEPRlbNS1y6pmu5h33hDR9QyXtFjc/xRHYf04rmtQ+G8q5bT7oOOyTDH6ivQaK6KeLrU/hZnOjCe6PFtQ0LUdLJ+12kiKP4wNy/mKz693ZQy4YAg9iKwdU8GaVqWWEP2eU/xw/L+Y6GvTo5qtqi+aOWeEa1gzyirNhqd3pk3m2Vw8TdwDwfqO9bWr+BtS03dJbgXcI/ijHzD6r/hmubIIJUghgcEEYxXpQqUq8fdaa/rocrjKm9rM9B0b4hRS7YdWjETn/lsg+U/Udq7KGeK4iWWB1kRuQynINeG1o6Rr19oswa0lPlk/NE3Kt+H9RXn4jLIy1paPsdNPFNaTPZqKwdA8W2etgR58m5A5ic9foe4rdrxZ05U3yyVmd0ZKSumI6LIhVlDKRyCOtcJ4l8C533WkLg9Wt+x/wB3/Cu9oqqNedGXNBk1KamrM8I8t/M8vY3mZ27cc59Metdl4e8BzTslzqhaFAdyxKfnP1Pb+ddwulWS37XotohcsMGTbz/n3q5iu6vmcpx5YK3cwp4RRd5O4KoVQozgDHJpaKK8w6wooooAKKKKACiiigAooooAKKKKACiiigAooooAKKKKACiiigAooooAKKKKACiiigAooooAKKKKACiiigAooooAKKKKAE/Cs+80LTb8f6TZQufXbg/mK0aKak4u6dhNJ7o5G8+HWmzZNrLNbt6Z3D9awrv4d6lDzbTQ3Cjt9w/rXpdIRXXTx9eHW/qYyw9OXSx4teaFqdhn7TYzIB1YLuH5jiqFe8YrPvNA0y/z9psYXJ/iC4P5jmu2nm388fuMJYP+VnjNFeiX3w4spctZXEsDejfOK5y/8DaxZ5Mca3SDvEefyNd1PHUKml7Pz0OeWHqR6fcYVtdXFpIJLaaSFwc5RsV0eneP9TtMLdKl1GOpYbW/Md65uaGW3kKTxvG4/hcEfzplbTo0qy95J/13IjUnB6Ox6ppnjbStQwkkptpT/DNwPz6V0KurqGVgynoQeteEVpaZr+o6QR9kuWCZ5jb5lP4H+mK82tlSetJ/JnVTxfSSPZ6K47R/iDa3W2LUU+zSHjeOUP49q66KVJo1kidXQ8gqcg15NWjOk7TVjshUjNXix9Y2seGNP1pSZogk3aWPhh/j+NbNFRCcoO8XZjlFSVmjyTXPCF9o2ZNv2i1H/LVByPqO38qwa93ZQykMAQeua4/xF4FhvA9zpQEM/UxdEf6eh/SvYwuZ3tGr9/8AmcVXC21h9x50jtG4aNmVgchgcEV3vhXxo80kdhqm55GO2OYDr7Njv71zml+EtT1O6eEwNAkbbZJJVwB9PU/SvRdE8NWOhR/uE3zEfNM4yx/wHsK0x9eg48r1fS3QnDU6id9kbFFFFeCeiFFFFABRRRQAUUUUAFFFFABRRRQAUUUUAFFFFABRRRQAUUUUAFFFFABRRRQAUUUUAFFFFABRRRQAUUUUAFFFFABRRRQAUUUUAFFFFABTJfM8s+Tt39t/Sn0UAc5N4vh064EGr2k9ox6PjejfQjr+VallrOn6gM2l3DIf7obBH4VNe2NvqNu0F3EssbdmH+cV59r3gS5sGNxpReeFefLz+8T6eo/WuujChW92T5X+BhOVSGqV0elUV47ZeJ9X007YruRlU42S/MB+fNdNp/xIHC6laEeskRz+hrSpltaGsdV5EwxUHvod5QazNO8QabqoH2S7jZj/AAE4b8jWnXDKMou0lY6E01oyvd2NtexlLqCOVT2dQa5fU/h7Y3OXsZXtnPO37y/4iuworSnXqUn7jsTOnGe6PINU8KappWWkgMsQ/wCWsXzD8e4/GsWveMZrB1fwdpmrZfy/s85/5aRDB/EdDXqUM16VV80clTCdYs8nrQ0nXr7RZA1pMfLz80Tco34f4Vb1rwlqGjZkKefbj/lpGOn1HasKvUUqVeHRpnI1Km+zPVtB8Y2Ws7YXIt7o/wDLNjw30Peui7V4R0wQcEdCOMV6P4I1HWLuHZeRNJZgfu7iQ4b6f7Q9/wBa8bG4BUlzwenZnbQxDm+WS1OxoooryzsCiiigAooooAKKKKACiiigAooooAKKKKACiiigAooooAKKKKACiiigAooooAKKKKACiiigAooooAKKKKACiiigAooooAKKKKACiiigAooooAKKKKACiiigAooooA57X/CFlrQMqjyLrtKo6/Ud6831bRL3RZ/LvIiFJwsi/db6H+le01Dc2sN5A0NzEssbDBVhkGu7DY+pR0eqOerh4z1WjPDRkEEEgjoRxit3TPGOq6ZhfO+0RD+CXn8j1Fa/iDwFJBuuNILSR9TAfvD6Hv8ATr9a4x0aNyjqyupwVIwRXtwnRxUej8nujgaqUmen6R4707UNsdyTaTHjDnKn6N/jiumVw6hlIZT0IPWvCK1dI8R6jozj7NMWizzFJyv/ANb8K4a+Vrek/kzop4t7TR7JRXN6H4ysdW2xSH7NcH+Bzw30P9K6TtXj1Kc6b5ZqzO2M4yV0xCAQQRkGuU1/wNbahunsNttcHkgD5HPuO34V1lFOlVnSfNB2FKCmrNHF6B4Citdtxq22eUciIcov19T+ldkqhFCqAAOgFOop1a060uabuEKcYKyQUUUVkWFFFFABRRRQAUUUUAFFFFABRRRQAUUUUAFFFFABRRRQAUUUUAFFFFABRRRQAUUtFACUUtFACUUtFACUUtFACUUtFACUUtFACUUtFACUUtFACUUtFACUUtFACUUtFACUUtFACUUtFACVh674WstcUtIvlXAHyzIMH8fUVuUVUJypvmi7MmUVLRnj2seF9S0Ylp4vMgB4lj5H4+n41j17pdf8e0n+6a8Uuf8Aj7l/3jX0OAxUq8Xz9DzcRSjTegWNhdalciCzhaWQ9gOn1PYV6z4d0+903ThDqF2bl+wI+57Z6n8ayPh7/wAgmb/rpXXdq83McTKVR0raI6cLTSjzBRS0V5x1iUUtFACUUtFACUUtFACUUtFACUUtFACUUtFACUUtFACUUtFACUUtFACUUtFACUUtFACUUtFACUUtFAH/2Q==;" vertex="1" parent="1">
          <mxGeometry x="230" y="390" width="30" height="30" as="geometry" />
        </mxCell>
        <mxCell id="y6lDCbBZrQ7oHGHBkASp-7" value="" style="shape=image;verticalLabelPosition=bottom;labelBackgroundColor=default;verticalAlign=top;aspect=fixed;imageAspect=0;image=data:image/jpeg,/9j/4AAQSkZJRgABAQEAAAAAAAD/4QAuRXhpZgAATU0AKgAAAAgAAkAAAAMAAAABAAAAAEABAAEAAAABAAAAAAAAAAD/2wBDAAoHBwkHBgoJCAkLCwoMDxkQDw4ODx4WFxIZJCAmJSMgIyIoLTkwKCo2KyIjMkQyNjs9QEBAJjBGS0U+Sjk/QD3/2wBDAQsLCw8NDx0QEB09KSMpPT09PT09PT09PT09PT09PT09PT09PT09PT09PT09PT09PT09PT09PT09PT09PT09PT3/wAARCAHaAdoDASIAAhEBAxEB/8QAHwAAAQUBAQEBAQEAAAAAAAAAAAECAwQFBgcICQoL/8QAtRAAAgEDAwIEAwUFBAQAAAF9AQIDAAQRBRIhMUEGE1FhByJxFDKBkaEII0KxwRVS0fAkM2JyggkKFhcYGRolJicoKSo0NTY3ODk6Q0RFRkdISUpTVFVWV1hZWmNkZWZnaGlqc3R1dnd4eXqDhIWGh4iJipKTlJWWl5iZmqKjpKWmp6ipqrKztLW2t7i5usLDxMXGx8jJytLT1NXW19jZ2uHi4+Tl5ufo6erx8vP09fb3+Pn6/8QAHwEAAwEBAQEBAQEBAQAAAAAAAAECAwQFBgcICQoL/8QAtREAAgECBAQDBAcFBAQAAQJ3AAECAxEEBSExBhJBUQdhcRMiMoEIFEKRobHBCSMzUvAVYnLRChYkNOEl8RcYGRomJygpKjU2Nzg5OkNERUZHSElKU1RVVldYWVpjZGVmZ2hpanN0dXZ3eHl6goOEhYaHiImKkpOUlZaXmJmaoqOkpaanqKmqsrO0tba3uLm6wsPExcbHyMnK0tPU1dbX2Nna4uPk5ebn6Onq8vP09fb3+Pn6/9oADAMBAAIRAxEAPwD2WiiigAooooAKKKKACiiigAooooAKKKKACiiigAooooAKKKKACiiigAooooAKKKKACiiigAqteX1vYW7T3UqxRr1ZjisLX/GdnpG6G3xc3Y42qflX6n+g/SvOdT1a81i4869mZyPuqPur9BXfhsvnW96Wi/P0OariYw0WrOh8Q+Opr8PbaenlWx4Z3A3P+B6D9a5LJ9aWiveo0IUY8sFY8+dRzd2za0HxTd6E+xQstsTloyMfkfWvSdH1+y1uHfayjePvRtwy/h/WvHKdBPLazLNbyNFIv3WU4Nc2KwEK3vLR/wBbmtLESho9Ue60VwugeP0k22+sYRugnX7p+o7fWu3jkSVA8bBkYZBByDXgVqE6MuWaPRhUjNXTH0UUVkWFFFFABRRRQAUUUUAFFFFABRRRQAUUUUAFFFFABRRRQAUUUUAFFFFABRRRQAUUUUAFFFFABRRRQAUUUUAFFFFABRRRQAUUUUAFFFFABRRRQAUUUUAFFFFABRRRQAUUVymv+ObXTd0FjtubkcEg/In1Pc+wrSlSnVlywV2ROagrs39Q1K10u3M95MsSD1PJ+g7155r/AI3utT3QWO63tjwWzh3/AMB9K5/UNSutUuTPeTNLIemei/QdhVevdw2XQp+9PV/gjz6uJc9Fogooor0jmCiiigAooooAK1tE8S32hOBC/mW5PzQuePwPY1k0VE6cKkeWSuhxk4u6dmev6J4ksddiH2d9kwGWhY4Yf4j3Fa/bpXhUcjwyLJG7JIpyrKcEV23h/wAfldtvrHI6C4UdP94f1FeJictlC8qWq7dTvpYpPSejPQKKjgniuYllgkWSNhkMpyDUleU1bRnYFFFFABRRRQAUUUUAFFFFABRRRQAUUUUAFFFFABRRRQAUUUUAFFFFABRRRQAUUUUAFFFFABRRRQAUUUUAFFFFABRRRQAUUUUAFFFFABRRRQAUUUjMFUkkADuaAFqhqesWej25mvJgg/hH8TfQVzniDx5BZ7rfS9s844Mn8C/4muAu724v7kz3czSyHqWPT6egr0sLl06lpVNEctXEqOkdWbmv+NLzV90MG62tTxtU/M31P9BXN06ivcpUYUlywVjz5TlN3bCiiitSQooooAKKKKACiiigAooooAKKKKANLRvEF9oc261kzETlom+63+B9xXpGheKrLXECK3k3OOYXPP4eoryWhHZHDKxVlOQwOCK4sTgadbXZ9zelXlT80e70V51oHj2W222+rbpYxwJgPmX6+o96761u4L23Wa2lWSNujKeDXgV8NUoO0l8z0adWNRXRPRRRWBoFFFFABRRRQAUUUUAFFFFABRRRQAUUUUAFFFFABRRRQAUUUUAFFFFABRRRQAUUUUAFFFFABRRRQAUUUUAFFFFABRRRQAUUx3WJC8jBVAySTwK4vX/HyQ7rfSNsj9DORlR9B3+vStaNCdaVoIidSMFds6XV9dstFg8y7lAY/djXlm+grzfXvFt7rTGIE29rniJTy31Pf6dKxbm5mu52muJWlkbqzHmmV72Gy+FHWWr/ACPOq4mU9FohtOoor0DnCiiigAooooAKKKKACiiigAooooAKKKKACiiigAooooAKvaVrV7o0/m2cpUE/NGfut9R/WqNFTOEZxcZK6HGTi7o9V0HxhZ6yBFIRb3WOY2PDfQ966HmvCBkEEEgg5BHBFdZ4f8d3Fhtg1LdcW44En8a/X1FeLicsavKl9x3UsVfSZ6ZRVWy1C21G3E1rMksbd1P8/SrVeQ007M7E01oFFFFAwooooAKKKKACiiigAooooAKKKKACiiigAooooAKKKKACiiigAooooAKKKKACiiigAooooAKKKZLNHbxtJK6oijJZjgChK+iAfWRrXiOy0OLNxJulIysS8s3+A9zXMa/4/wDvW+jj2Nww/wDQR/U1w8sslxM0sztJIxyzMck16mGy2U7SqaLt1OSrilHSOrNfXPFF9rjlZG8q2zxCh4/E9zWPRRXuQpxprlgrI8+UnJ3buwoooqxBRRRQAUUUUAFFFFABRRRQBPYWMuoXiW8AG5jyT0A9a66LwfYJCFkaV5McsGx+lHhbTPsll9pkXEs4yM9l/wDr9a3q8nE4qTnaLskdlKkkrtas8/1vRH0iZcMZIZPusR09j71mV6RqlgmpWElu2ASMq3o1ecSxPDM8UilXQ7WB7V14Su6sbS3RhWp8jutmJRRRXWZBRRRQAUUUUAFFFFABRRRQBa07VbvSbgTWUzRt3Xs31HevRdA8a2mrbYLrFtdHjaT8rfQ/0NeYUVyYjB0661Vn3NadeVN+XY93ory7QPGt1pe2C83XNqOBk/On0Pcexr0TTtUtNVthNZzCRD19V+o7V4GIwtSg/eWnc9KnWjUWm5dooormNQooooAKKKKACiiigAooooAKKKKACiiigAooooAKKKKACiiigAooooAKKKKACiobm6htIGmuZVjjXqzHAFcF4g8fST7oNIzGnQzkfMfoO31rehh6leVoL5mdSrGmrtnUa74pstDQrI3m3BHywoefx9BXm2teIr7XJCbmTbCDlYV+6P8AE/Wsx3aRy7szOxyWJyTRXv4bA06Gr1ff/I86riJVNNkFFFFdpgFFFFABRRRQAUUUUAFFFFABRRRQAVpeH9MOpagoYfuY/mc+vt+NZgBJAAJJOAB3r0PQ9NGmaekZA81/mkPv6fhXLi63s4abvY1ow53rsjR4HA4A4AFFFFeKdwVyfi7TMMt/CvDfLKB29D/SusqO4gS5t5IZhmOQbSK1o1HSmpIipBTVjzCip7+yfT72S3k6oeD6j1qCvejJSSa2PPaadmFFFFMAooooAKKKKACiiigAooooAKnsdQutMuRPZzNFIO4PB+o7ioKKUoqStJXQJtO6PSvD/jq21Arb6httrk8Bs/I5+vb8a6wHPIrweuj0Hxje6PthmJubUcbGPzKPY/0NePiss3lS+7/I7qWK6T+89WorP0rWrPWIPNs5g+PvKeGX6itCvGlFxbTVmdqaaugooopDCiiigAooooAKKKKACiiigAooooAKKKKACiiigAooooAK5/X/ABbZ6IDED591jiJT0+p7VN4q1dtG0SWeL/XNhI/Ynv8AhXkTu0jl3Ys7HJYnJJr0cDglX9+ey/E5cRXcPdjuX9W1y81qfzLqUlAfliX7q/h/WqFFFfQQhGCUYqyR50pOTuwoooqhBRRRQAUUUUAFFFFABRRRQAUUUUAFFFSW1vJdXKQQjMkjbQKTaSuw30Nvwppn2m6N3Iv7qE/Lnu3/ANbrXaVXsbOOws47eP7qDBPqfX8asV4Veq6k2+nQ9CnDkVgooorEsKKKKAMDxVpn2qzF1GuZYBzjuvf8utcXXqZAIIIyCMEHvXnuu6YdM1BkUHypPmjPt3H4V6eBrX/dv5HLXhZ8yM6iiivROYKKKKACiiigAooooAKKKKACiiigAooooAltbu4sZ1ntZWikU9VP+eK7/wAP+PIbvZb6riCY8CUfcY+/of0rzum1zYjC06695a9+prTqypvQ93Vgygg5B706uJ+H2sy3MU2nTsWMIDRknPy+n4V21fNVqTozcH0PUpzU4qSCiiisiwooooAKKKKACiiigAooooAKKKKACiiigAooooA5H4jQvJoUUi5KxzAtj0PFebV7fe2cV/aS2067o5F2sK8p17wveaHMzMpltSflmUfz9DXt5ZiIqPspOzvoefi6Ur8y2MaiiivYOMKKKKACiiigAooooAKKKKACiiigAooooAK6zwjpnlxtfzL8zDbED2Hc/j0rndLsG1K/jt1ztJy7ei16PHGsUSxoAqKNoA6CuDG1uVci3e50UIXfM+g6iiivKOsKKKKACiiigArM17TBqensij97H80Z9/T8a06KqEnBqS3QpJNWZ5WQQSCMEHBB7UtbvirTPst4LqNcRTnnHZv/AK/WsKvepVFUipLqedKLi2mFFFFaCCiiigAooooAKKKKACiiigAooooAKKKtadpd3q1wILOFpG7t2X6ntUykoLmk7IaTk7I6L4dQu+uTSjOxIcE+5Nel1keHNBj0HTxCpDyud0smPvH/AArWzXy+MrKtWco7Hq0IOEEmLRRRXMbBRRRQAUUUUAFFFFABRRRQAUUUUAFFFFABRRRQAU10WRCjqGUjBBHBp1FAHD6/4ASXdcaQRG/UwN90/T0+lcJPbTWk7Q3ETRSL1Vhg17nWZq+hWOtQeXdxAsB8si8Mv0NenhsylTtGpqvxOSrhVLWOjPG6K3Ne8JX2ikyAGe1z/rFHI+o7Vg17lOrGquaDujglFxdmrDqKKK0JCiiigAooooAKKKKACiiigDtfCVisGmfacZknOSfQCt6uW8M65BFaiyunEZU/Ix4Bz2+tdJ9pg/57xf8AfwV4eIjNVHdHfSa5VYloqMXEJYATREnoA4NSVg01uaBRRRSAKKKKACimtLHGcPIin0ZgKZ9pg/57w/8AfwU7MLkeo2SX9hLbyDhlyD6GvNCChKnqpwa77V9etrG2cJKsk7DCqhzj3PtXAkkkk8knJPrXqYCMlF326HJiGm1bcWiiiu85wooooAKKKKACiiigAooooAKQZJAAyScADvV7StGvdZn8qziLAH5nP3V+pr0fQfB9noyrLIBcXQ/5aOOF/wB0dvr1rjxOMp0FZ6vsbUqEqnku5y2geBbi/wBtxqW+3tzyI+jt9fQfrXoVjp9tptssFpCsUY7KOv19as4oxxXgYjFVK7956dj0adGNNaC0UUVzmoUUUUAFFFFABRRRQAUUUUAFFFFABRRRQAUUUUAFFFFABRRRQAUUUUANYBlIYAg9iK4/X/AcN3vuNL2wTHkx/wADf4H9K7KitKVadKXNB2InTjNWaPDruyuLC5aC7haKQdQw6/4ioa9o1TR7PWLbybyJXH8LdGX6GvOde8G3mj7poN1zajnco+ZfqP6ivew2YQq6S0f4M8+rhpQ1WqOdoptOr0TmCiiigAooooAKKKKAG0YHoPyp1FADRwcjg+o4Ndj4S1OW6jltZ2LmIBkYnnHp+FchXQ+DP+Qhcf8AXP8ArXLi4J0m+xrRk1NHZUUUV4p3BWdrl+2m6VJNH/rCQq57E9/wrRrC8Yf8gYf9dBWtGKlNJ7XJqNqLaOJlkeZy8zs7k8sxzmm4HoPyp1Fe9ZLY88bTqKKYgooooAKKKKACiiigAoorR0fQL7W5ttrHiIHDSt91f8T7ConUjCPNJ2Q4xcnZIzUDOQqgszHAUDOa7Lw/4Cludtxq26GLqIQfmb6+n8/pXU6F4UstEUOq+dc45lfqPp6CtzmvFxOZyleNLRd+p3UsKlrMhtbOCxgWG2iWKNRgKowKnooryW23dnYlYKKKKBhRRRQAUUUUAFFFFABRRRQAUUUUAFFFFABRRRQAUUUUAFFFFABRRRQAUUUUAFFFFABRRRQByfiDwNa6junsNttcnkqB8j/h2PuK88v9OutMuTBeQtFIOmeh+h7ivbuaqajplpqtuYLyFZEPqOR9D2r0MLmE6Voz1RzVcMp6x0Z4pRXT6/4JutN3T2W64th2x86fUd/qK5ivepV4VlzQdzzpwlB2aCiiitSQooooAKKKKACuh8Gf8hC4/wCuf9a56uh8Gf8AIQuP+uf9a58V/CZpS+NHZUUUV4Z3hWF4w/5Aw/66Ct2sLxh/yBh/10Fb4f8Aix9SKnwM4miiivdPPCiiigAooooAKKKKACiON5ZFjjRnkY4CqMk1q6J4avtckBhTy4B96Zxgfh6n6V6Tonhqx0SIeSm+cj5pnHzH/AfSuHE4+FHRavt/mb0qEp67I5jQPADNtuNYyq9Rbqef+BH+gru4LeK2hWKCNY414CqMAVLRXgV8RUryvNnowpxgrJBRRRWJoFFFFABRRRQAUUUUAFFFFABRRRQAUUUUAFFFFABRRRQAUUUUAFFFFABRRRQAUUUUAFFFFABRRRQAUUUUAFFFFAAa5nX/AAXaavumtsW10edyj5W+o/qK6airp1Z03zQdmTKCmrM8T1PSbzSbgw3sLIf4WH3W+hqpXt17Y2+o27QXcSyxt2Yf5xXn2v8AgS4st1xpm6eAcmI8uv09R+te7hsxhUtGpo/wZ59XDOOsdUclRSEEEgggg4IIxilr0zlCiiigArofBn/IQuP+uf8AWuerofBn/IQuP+uf9a58V/CZpS+NHZUUUV4Z3hWF4w/5Aw/66Ct2sLxh/wAgYf8AXQVvh/4sfUip8DOJooor3TzwooooAKKbW5oXhS+1shwpgte8rDr9B3rOpUjSXNN2RUYuTslcx4beW5mWG3jaSRj8qoMk13WgeAFj23GsHe3UQL0H1Pf6Cum0fQLLQ4dtrF85HzSNyzfj/QVq14eJzKU7xp6L8TvpYVR1lqxkcaQxrHGioijAVRgCn0UV5m51hRRRQAUUUUAFFFFABRRRQAUUUUAFFFFABRRRQAUUUUAFFFFABRRRQAUUUUAFFFFABRRRQAUUUUAFFFFABRRRQAUUUUAFFFFABRRRQAUUUUAc9r/hCy1oGVR5F12lUdfqO9eb6tol7os/l3kRCk4WRfut9D/SvaahubWG8gaG4iWWNhgqwyDXdhsfUo6PVHPVw8Z6rRnh1Fdnr/gKW33XGkZkTqYG+8Poe/0rjGRo3KOrK6nlSMEV71HEU6yvF/5nnVKcoPVBXQ+DP+Qhcf8AXP8ArXPV0Pgz/kIXH/XP+tGK/hMdL40dlRRRXhHeFYXjD/kDD/roK3awvGH/ACBh/wBdBW+H/ix9SKnwM4miim17p546pbW0nvp1gtYmlkboqj/PFbeg+Dr3WSssgNtaH+Nhy30H9a9H0rRbLRrfyrOELn7znlm+prz8TmFOjpHVnRSw0p6vRHN6B4Citttxqu2aXqIhyi/X1P6V2SqEUKoAUdAB0p1FeDVrzrS5pu56MKcYKyQUUUVkWFFFFABRRRQAUUUUAFFFFABRRRQAUUUUAFFFFABRRRQAUUUUAFFFFABRRRQAUUUUAFFFFABRRRQAUUUUAFFFFABRRRQAUUUUAFFFFABRRRQAUUUUAFFFFABWHrvhay1xSzr5VwB8syDn8fUVuUVUJyg+aLsyZRUlZo8b1nw7faJJi5j3RE4WVfun/A+xq94M/wCQhcf9c/616jPDHcRNFMiujDDKwyDXOx+E4dMv5bvT9wjkXBh67fp7e1erHMfa03Cas+/c5HhuWSlHYfRR0yD1HWiuc0CsLxh/yBh/10FbtR3fh9tctkhkdooQ4ZmA5OOw/wAaunUjTmpSeiJlFyTSPN7GwudSuRBZwtLIewHA+voK9B8P+Bbaw23Gobbi4HIXHyJ+Hf8AGui03SrTSbcQ2cKxr3PUsfc96uc0sVmM6t4w0Q6WGUNZasAAoAAwB2paKK846gooooAKKKKACiiigAooooAKKKKACiiigAooooAKKKKACiiigAooooAKKKKACiiigAooooAKKKKACiiigAooooAKKKKACiiigAooooAKKKKACiiigAooooAKKKKACiiigAooooAKKKKAK1xYxXHJG1v7wqi2kzbjtkjK9s5rXoq41JLRMlxTKNvpkcRDSHzG7AjgVeooqW23qNJIKKKKQwooooAKKKKACiiigAooooAKKKKACiiigAooooAKKKKACiiigAooooAKKKKACiiigAooooAKKKKACiiigAooooAKKKKACiiigAooooAKKKKACiiigAooooAKKKKACiiigAooooAKKKKACiiigAooooAKKKq3uo22nRrJdyrEjMEDHpk0JNuyBuxaopquHUMpBUjgg9adQAUUUUAFFFFABRRRQAUUUUAFFFFABRRRQAUUUUAFFFFABRRRQAUUUUAFFFFABRRRQAUUUUAFFFFABRRRQAUUUUAFFFFABRRRQAUUUUAFFFFABRRRQAUUUUAFFFFABRRRQAUUUUAFNZ1UgFgCegJ61zev+NLTSN0Nti5uhxtU/Kv1P9BXnd/rN9qV2Lm4uGLqcptOAn09K7sPgKlZXeiOepiIwdt2e1UV51oXj+a3Cw6qrTIOBMv3h9R3ru7HUbbUoBNZzpKh7qen19Kwr4WpQfvrTuaU6sZrRlqiiisDQTvXK/ET/kXB/wBdlrq6q32n22pWxgvIVliPO1q0o1FTqKT6EVI80WkeWaD4rvtEIjBM9r3iY9Poe1ek6Pr9jrcW+0lG8D5o24Zfw/rXNal8OIny+m3DRn/nnL8w/PrXL3WhazoVwJzBNGUPE0J3AfiP6161SGGxesHaRxxlVo6NXR7DSVw3h/x+j7bfWMI3QTr90/UdvrXbxyJKgeNgyMMgg5Bryq2HnRdpI7IVIzV0PooorIsKKKKACiiigAooooAKKKKACiiigAooooAKKKKACiiigAooooAKKKKACiiigAooooAKKKKACiiigAooooAKKKKACiiigAooooAKKKKACiiigAooooAKKM4rLh8Qabcag1jFdRtOvYHg+wPc+1NRclohNpbs1KGAIIPQ0UUhnE+IvAcdzvudJxFKeWhJwrfT0P6VwVzbTWk7Q3MTRSKeVYV7lVDVNEsdZh8u9hD4+6w4Zfoa9LC5jKlaNTVficlXCqWsdGeMV1/w2z/a10OceSOO3Woda8B31iTLYZuoR/CB86/h3/D8qn+HKNHrN4jqysIgCpGMc16GJr062Hk4O5z0qcoVUmj0eiiivnT0wooqnqOp2ulQCa8k8uMsF3YJ5P0oSbdkJuyLlGM9arWuoWt8m+1uIpl/2GBqzQ007ME09jJ1Dw1peo5NxaR7z1dRtb8xVKy8N3WivnSr9mgzzb3Iyv4MOn5V0eKTFaKtNLlvoT7ON72Gxl2jBkTY2ORnOKfRRWZYUUUUAFFFFABRRRQAUUUUAFFFFABRRRQAUUUUAFFFFABRRRQAUUUUAFFFFABRRRQAUUUUAFFFFABRRRQAUUUUAFFFFABRRRQAUUUUAFFFFABUF1crZ2sk7q7LGu4qi5J+gqejrQtxM8q17xleaxuht91tanjap+Zvqf6CucBKMCpIKnIIOMV6X4j8EQ6juutP2wXR5Zeiyf4H3rzq7tLiwuWguomikXqrD/ORX0uCq0JQ5aat3XU8uvConeWvmdZ4f8fTW2231bdNEOBMOWX6+v8AOu+s723v4FmtZlljPRlOa8Qq1p+qXmlT+bZTtE3cDkN9R3rHE5bCp71PR/gXSxTjpLVHttFcVo/xDt5gsWqR+Q/TzF5Q/XuP1rr7e5huoRLbypIjdGU5BrxatCpSdpo74VIzV0yaoRawrcGcRIJiNpcDkipqKyvYsKKKKACuV+If/IuD/rstdVXPeNdOudT0Mw2cXmSCRW25xkCtsM0q0W3pczqpuDSPKo5ZIXDwuyOOjIcEflW1ZeM9ZssAXXnIP4Zl3fr1rKurK5s3K3VvLCw7OpFV6+olTp1Vqk0eUpTg97He2nxKHAvbIj1aJs/oa37Lxlo17gLdrE5/hlG015LTa46mWUZbXRtHFTW+p7rFPFMu+KRJF9VYEVJXhlvdXFq4a2nkiYdCjEYras/G+s2mAbhZ1H8My5z+PWuKplU18DT/AAN44uL3Vj1miuFs/iVGcC9sWX1aJs/oa3rPxfo99gJdrG542y/If1riqYStT+KJvGtCWzNyimpIkihkYMD3BzTq5zUKKKKACiiigAooooAKKKKACiiigAooooAKKKKACiiigAooooAKKKKACiiigAooooAKKKKACiiigAooooAKKKKACiis7WzqA0yU6SIzcjoH9O+Pf604rmaQm7Ibq+u2WiweZdSgMR8sa8s30FY2heOrbVLpre6jFs7N+6JPDDsCexrzm7luJrqR7x5GnzhzJ1BqKvdhldP2dpO7fU8+WLlzaLQ93zSZ4rzPw543n04Jb6huntxwH6un+Ir0Szvre/tlntZVljPRlOa8nEYWpQdpLTudlOtGotCzWfqui2WsweVeQq+PusPvL9DWhRWEZOLunZmjSaszy3W/BF9phaW0DXdsO6j51+o7/UVzPIJB4I4IPavd6xdZ8KadrGXlj8qc/wDLWPg/j6162HzRr3aqv5nHUwiesTyOrFlqF3psnmWdxJC2cnaeD9R3rb1bwNqWnEvbqLuEc7oxhh9V/wAK5x0aNyrqyspwVIwRXrQqUq60aaONxlTe1mdppnxGnjwmpW6yr3ki4P5f/qrsNJ8QafrSn7FLudRlkIwy143XX/Df/kMXX/XEfzrzsbgqUabqRVmvuOmhXm5KLd7npFFFFeGegFFFFADJYY50KSorqeoYZFYl74N0a9yTaiJz/FEdprepKuNScHeLaJcIy3Rwd58Nepsr4/7sy5/UVg3fgzWrTJ+zeco7wtu/TrXrdJXZTzKvHd39TCWFg/I8LmgltnKTRPE46q6lcfnUde6TW8NwhSaJJFPZlBFYt74L0a8yfsvksf4oW2//AFq7aebRfxq3oYSwb6M8nptd3e/DZuTY3w9llX+orn7zwjrNjktZmVR/FEd1dtPGUam0l89DCVCpHoZtrqF3YkNaXU0JHTaxx+VdDYfELU7bC3KRXKDuRtb9K5eSNonKSIyOOqsMEfnRVzw9KqveSZMak4bOx6vofjDT9ZYRAmC4PSOQ9foe9b/NeEAkEEcEHII7V1nh/wAd3Fhtt9S3XFuOBJ/Gv19R+teVicscfepa+R2UsVfSZ6ZRVWx1C21K3We0mWWNu6np9fSrVeQ007NHYmmroKKKKBhRRRQAUUUUAFFFFABRRRQAUUUUAFFFFABRRRQAUUUUAFFFFABRRRQAUUUUAFFFRzTx28TSSuqRqMszHAAoSuBJRXA6/wCP/vW+j/Q3DD/0Ef1NV/C3jWS2kFrq0rPEx+Wdjkoff1H8q7VgK3s/aW+XUw+sQ5uW56NRTUdZEDowZWGQQetOriNznPEnhK31tDNFiG8A4kA4b2b/ABrzPUNNutLujb3kTRuOmeje4PcV7fVLUtKtNXtjBeQrIvY9Cp9j2r0MJj5UfdlqvyOathlPVaM8Vq3p2q3mkz+bZTtGx+8v8LfUd62de8E3mllprQNdWo5yB86/Ud/qK5uvdhUpYiGjTT/rU89xlTfZnpOi+PrO92xagBazHjdnKN+Pb8fzrq1kWVA8ZVlPIIPFeF1f0zXtQ0cj7HcMqZ5jb5lP4f4V51fK4v3qTt5M6aeLa0ke0UVxWl/ES1mwmpQmBuhkT5l/xH611dnf2t/EJLSeOVfVGz/+qvIq4epSfvKx2wqRnsyzWfqOhafqq4vLZJG/vYww/EVo0VnGTi7xdmU0nucFqXw3zl9Nusf9M5hx+YqXwVod/pGsXP223KK0WFcHKnn1FdxSV1SxtWVN05O6ZisPBSUlpYWiiiuQ3CuY8fSyQ6ArxSPG4mXDIcGunrlfiJ/yLY/67LW+F1rRv3M6vwM4208Za1aYAuzMo7SgNn8etb1l8SW4F7Yg+rRN/Q/41wlOr6Kpg6E94r5aHmRrVI9T1ay8baNd4BufIY9pl2/r0rbhuYblA0E0cinurA14dToZpbZ98MrxP6oxX+VcVTKYv4Hb1N44xrdXPdKWvJbLxprNlgG4E6DtMuT+ddFY/EmFsLf2jRnu0R3D8jXDUy6vDZX9DojioPfQ7cUtZWn+ItL1PAtryMuf4GO1vyNalcUoSi7SVjdST2ZWu9OtL5Nt1bRSj/bUGucv/h7ptzlrR5LZz0AO5fyNdZS1pTr1KfwtomVOMt0eVal4G1axy0Ua3UQ7xHn/AL5P9M1zskbxOUkRkcHBVhgivdqpX+kWOqR7Ly2jl9yOR+NejRzWS0qK/mc08Gn8LseQadqt3pNwJrKZo27r2b6jvXo2geNbTVtsF1i2uj/CT8rfQ/0NZGrfDphuk0mfP/TKU/yb/GuNvbC60+Yw3kDwyDoHGM/T1/CuuUcNjVeL978TFOpQeq0PcKK8u0DxrdaXtgvN1zajgZPzp9D3Hsa9E07U7TVbYT2cwkQ9R3X6jtXjYjC1KD95adztp1o1FpuXaKKK5zUKKKKACiiigAooooAKKKKACiiigAooooAKKKKACiiigAooooAKKazBFLMQFAySe1R2t1DewLNbSrLG3RlOQaLOwrk1Y/iTQl1/TjB5rRyId0ZB4z7juK16KqEnCSlF6oGlJWZ4ffWNxpt09tdxmOVDyD39x6g1DXsOu+H7TXrbZMu2VR8koHK/4j2ryzV9Fu9FujDdx4BPySD7rj2/wr6PCY2Ndcr0f9bHl1qDpu61Ro+HPF1zobCGXdPZk8oTyn+7/hXpmn6la6pai4s5VkjPXHUexHY14pVnT9Tu9KuRPZzNG/cDo31HeoxWXxrXlDR/mVRxLho9Ue3UVyeheOrTUNsN9i2uDxkn5G/Ht+P511YYMAVIIPcV4NSlOk7TVj0ITjNXQvaue1vwbp+sZkC/Z7g/8tIx1+o710NFKFSVN80HZjlFSVmjyHV/Cep6QSzRGeEdJIhn8x1FYle8Vh6r4Q0vVcu0PkzH/lpF8p/EdDXrUM16VV80cdTCdYs8lp0NxLbSCS3leJx0ZCVI/Kun1P4f6ja5ezdLpB2HysPw7/hXNXNrPaSGO5hkhcdVdSK9OnWpVl7rT/rsckqc4PVWOg0/x7qtnhZ2S7jHaQYb8x/XNdLYfEPTZ8Ldxy2znuRuX8xXm1FY1MBRqa2s/I0hiJx63Pa7TVLK/UNa3UUoPTawNW68IQsh3KSrDuDiu6+H2p3t1f3FvcXUssSRAqrnOOfWvMxOXOlBzi7pHVSxXO1Frc76iiivMOsKZJEkqFJEV0PUMMg0+ijYDDvPCGjXuS1mkbH+KL5P5cVhXnw1jOTZXroeyyru/UV3NFdFPF1ofDIylRhLdHlF54H1m03FYEuEHQxNyfwNYdxaz2rlbmCSJgejqRXudRywRToVljR1PZhkV2082mtJpP8AAwlhIvZ2PDKK9XvvBOjXuT9m8hz/ABQnb+nSudv/AIbzplrC7WQdklGD+Y/+tXdSzKjPR6HPLCzW2pxP861dP8TarpmBb3bGMf8ALOT5l/Xp+GKiv9B1LTM/a7ORUH8YG5fzFZ1dbVKsujRjeUH1TPQdM+I0MmE1K2aI95IvmH5df511tlqdpqMQks7iOVf9k5x+FeJ0+3uJbWYS28rxSA5DIcEVwVsrpy1puz/A6IYuS0lqe50V5zo/xCubfbFqUf2hB/y0Xh/8D+ldzpmr2WrQ+ZZTrIO65wy/Udq8ithatH4lp36HbCtCezL1Vb2wttRgMN3CkqHswz/+qrVFc6bTujRpNanneufD+WHdPpLGVByYGPzD6HvXK2l5eaPeGS3kkt5k4ZSP0Ir26sTXvC9nrkZLqIrgD5ZlHP4+or1MPmLtyVldHJUwy+KGjMzQPHVtqG231DbbXJ4DZ+Rz7HsfY11gIIyDkGvGNY0W70W48m7j4P3JB91/p/hWnoHjG80dlhmLXNqONjH5l+h/pWlfL4zj7Sg9OxNPEuL5ah6tRVTT9Qg1O0S5tnDxuOD/AENW68dpp2Z2ppq6CiiigYUUUUAFFFFABRRRQAUUUUAFFFFABRRRQAUUUUAcx49v3s/D7RxsVadxHkeneuJ8M+JptBudpzJaOfnjz09x/nmu38dae994fd4lLPAwkwO47/pXlle7l9OnVw7g1fXU87EylGomj3CyvYL+1S4tZFkicZDCrFePaD4iutBuN0R3wMfniJ4b6eh969R0jWrTWrUTWkgOPvIfvKfQivOxWDnQd913OqlXVRW6mjVW+sLfUrZoLqJZI2HII/l6VaorjTad1ubNJqzPL/EHgi603dPY7ri2HOMfOn19R7iuYr3Y5rnNd8GWOrbpYQLa5P8AGg4b6j+texhsztaNX7ziq4XrD7jyqtjR/FGo6MQsMvmQj/llJyv4en4UzV/DuoaI5+1QkxdpU5U/4fjWVXq2p149GmcfvU32Z6jpPjvTr/CXR+yTHjDn5T9G/wAa6VJFkjDRsrKRkEHIrwmr2n6zf6W+bO6kjGeVzlT+Brzq2VRetJ28mdVPFtaSR7XRXn+n/EhxhNRtQ3rJCf6GuosPE+lalgQ3aBz/AAP8p/I15dXCVqXxI64VoT2ZsVBc2dvdxlLiGOVPR1BqYEMAQcg96WsLtPQ0tc5a/wDh/pd1lrfzLVz/AHDlfyNc3ffD3UrbLWskVyg5wDtb9a9MxRXXTx9enpe68zGeHhLpY8Su9LvrAkXdpNFjuy8fn0rpvhv/AMhi6/64j+dejMquuGAIPY1Xg0yztrhp4LaKOVxhmRcZrermLq0nTktzOGF5JqSexaooorzDrCsDxfqlzo+ji4s2VZBKo+YZBBrf6CuU+If/ACLY/wCuy1thoqVWKeqbM6rag2jIs/iTMuBe2auO7RNj9DXRWPjXR77Cm4MDn+GVdv69K8opte7Uy2jPbQ8+OKmt9T3WKaOZA8UiSKejKcg1JXh1te3Nm4e1uJYWHdGIrobDx/qlrhboR3KDruG1vzFcFTKqkdYNM6YYuL+LQ9QormNO8d6VfYWdntZDxiUcf99CujimjnQPE6up6FTkV51SlOm7TTR0RnGa0Y8gEEEZB7Vial4R0rU8tJbiKQ/8tIvlNblFKFSUHeLsOUVJao811T4fX1rl7CRbqMfwn5XH9D+lcrcW8trMYriJ4pF6q4wRXudU7/SbPVIfLvLdJV7EjkfQ9q9Ohmk46VFdfictTCJ6x0PFafbXE1pOs1vK0Ui9GU4NddrXw+nt902lv56D/lk3Dj6Hv+lcdJG8UhjkRkkU4KsMEV69KvSrr3XfyOOdOVN66HeaD8QA5W31gBT0E6Dg/UdvqK7eKVJo1kidXRhkMpyDXhla+g+JrzQpAEYy2x+9Cx4/D0NefistUrypaPsdFHFNaS1Xc9gorO0fWrTWrYTWkmcfeQ/eU+hrRrxJRcW1JWZ3ppq6Kl/p1tqdq1vdxrJG3Y9R7j0NeW+I/DNxoNxuG6W1c/JJjp7H3/nXruKhurWG8t3guEWSNxhlI4IrqwuLlQl3T3RlWoqovM4D4c3zpf3NmSfLdPMUf7Q/+tXolcr4e8JvomvXVwHD2xTbCc8jJ5Brq6WNnCpVcobMKEZRhaQUUUVymwUUUUAFFFFABRRRQAUUUUAFFFFABRRRQAUUUUAIyhlIIBB7GuD8ReAyzvdaRjJO5rcnj/gJ/pXe0VrQxE6MuaDIqU4zVmeEyxSW8jRTI0cinDKwwRU1jfXGm3S3FpK0Ug7jofY+or1nWvDtjrkWLiPbKOFlXhh/iPY15trnhi+0Jy0i+bbk/LMg4/H0Ne9h8bTxC5ZaN9H1POqUJU3dbHZ+H/HNtqAWDUdttc9AxOEf8ex9jXWAhlyDkGvB63dF8W6jo2Iw/n24/wCWUh6fQ9q5sTll/epfca0sW1pP7z1yisHR/F+m6vhBJ5E5/wCWcpwfwPQ1vV5E6coO0lZnbGSkrpjXRZEKuoZSOQR1rmNX8Cadf7pLXNrKf7gyp+q/4YrqaKdOrOm7wdhShGSs0eRap4R1XS8s0BniH/LSHn8x1FYnRiDwR1B4xXu9ZepeHdM1XJurVC5/5aKMN+Y/rXqUc1a0qL5o5Z4TrFnjtNru9Q+G7LltOu8jtHMP6iuZv/Deq6cT59lIUH8cY3j9K9Kni6NXaSv9xyzozhuiGx1zUdPYfZb2ZFHO0ncD+BrorL4i38WBeW0U6/3l+U/4Vx/qO460tOphaNT4ooUas4bM9OsvH+k3OBMZbZj13rkfmK3rXVLK+XNrdQy+yuDXidICyEMpIYcgg4xXFUyqm9YNo3jjJLdXPd6WvHLTxNq9jgRX0pUfwyHeP1rdsviReR4F5aRTDuYztNcVTLK0fh1N44uD30PRqK5ez+IGkXOBMZbZj/z0XgfiK37XUbS+UNa3MUoIz8jA1xVKNSn8SaN41Iy2ZZqlqel22r2htrxC8RIbAJHIq7RWabi00ymk1ZnD3nw2gfLWV7JGeyyruH5j/wCvXO33gnWLLJFuLhB/FCc/p1r1qiu6nmNeG7v6mEsLTeyPCZYpbdyk0bRuOquMYpK9uurC2vU2XVvHMvo6g1zeofD3TrjLWbyWrnoAdy/ka9ClmsJaTTX4o5p4OS+F3PNatWGqXumSB7K5kiPdQcg/hWpqfgvVtN3OIhcxD+KHk/8AfPX+dYBBQlWBDA4IIxiu+M6dZaNNHO4ypvszu9J+IvSPVYPbzYh/Nf8AD8q7Kx1G01GES2c6Sof7p6fUdq8TqW0vLiwnE1pM8Mg7qev+Irhr5ZCWtPR/gb08VJfFqj3KiuE0P4gqxWDWFCHoJ0HB+o7fhXbQTxXESywyK6NyGU5Brxa1CpRdpo7oVIzV0yWsjWvDllrkZFxHtmA+WVRhh/iPY1rUtRCcoPmi7MtxUlZnj2ueG73Q5v3y+ZAT8syjj8fQ1k17lPBHcwNFOiyRuMMrDINeceKPBkmm77vTlaS16tH1aP8AxH8q9zCZgqloVNH37nn1sM46x2Oc0/UrnS7xbmzkKSL19GHofUV6n4d8SW+vW/y4jukH7yIn9R6ivIq0tCtdSudRjbSVfz4z98cBfqfT2rfG4anVi5N2a6mdCrKErbp9D2eio7fzfIj+0bfN2jfs6Z9qkr5o9UKKKKACiiigAooooAKKKKACiiigAooooAKKKKACiiigAooooAKKKKACmvGsiFHUMpGCCODTqKAOH8QeAUm3XGkbY36mAnCn6Ht9OlcHPbTWk7Q3MTRSKeVYc17pWZrGhWWtweXdxAsB8si8Mv0NenhcylTtGpqvxOSrhVLWOjPG62dL8WarpOFSczRD/llL8wH07in694SvtFJkAM9rniVB0+o7fyrBr2U6OIhfRo4vfpvsz0vTfiFYXJCXqNaueN33l/MdPxrp7a9t72MSW08cqHoUbNeH0+3uJrWQSW8rxODnchxXDVyqEtYO35G8MXJfErnudFeWWHjvV7TCyulyo7SDB/MV0lj8RrCbAvIJbdvUfOK86pl9eHS68jpjiYS62OworPstc07UMfZbyGQnou7B/I81f/GuNxcd1Y3TT2KF7oenahn7VZwyN/e24P5jmufvPhzYTZNpPLbsegPzj9ef1rsKK0p4irT+GTREqUJbo8vvfh/qtvk25iuF7bW2n9awrvSr6xOLqzmi9yhwa9tprKGGCAQexrup5rVj8STMJYSL20PCMinV7He+G9Kv8m4soS395RtP5isG8+HFlLk2lzLAeyt84/xrup5pSl8SaMJYSa21POqEdoyGRmVhzlTiumvfh/q1tkweVcqOm1tpP4GsG7028sDi7tZoecZZDg/jXZCvSqfC0zCVOcd1Y0LHxbrFhgJeNKg/hmG/9TzXSWHxIU4XULQr/txHI/I//XrgadWdTB0Km8Vfy0KjXqR6nsen+JNL1Pi2u4y5/gY7W/I1p5rwj0Pccg+la+m+KtV0vAhumkjH/LOX5h/9avOq5S96b+TOmGM/mR7DRXG6X8Q7S42x6hE1s5/jHzIf6iutt7qG6hEtvKkiN0ZDkGvMq0KlJ2mrHXCpGavFktZWqeHtO1cH7VbKXx/rF4Yfj/jWpS1nGUou8XYpxUlqjzPWPAF5Z7pdPf7VEP4CMOP8f88VykkbROyOrI6nBVhgivdqydY8OWGtRn7TEFlA+WVeGH49/wAa9XD5nKPu1dV36nHUwiesNDx+tPRfEN9oc2baTdETlomPyt/gfcVPrvhS+0MmQjz7XtKo6fUdqxa9dOliIaWaZxtSpvsz1/QvEdnrkOYW2TqPnhY/MP8AEe9a4rwu3nltZ0mt5GjkQ5VlPIr0rwv4xTVdtpfFYrzseiy/T0PtXiYzL3SvOnqvyO6hiVPSW51dIQGBB5BpaK806zkL3wBZ3WrC5SRobduZIUHU+x7CulsdPttNthBaRLFGvZR/P1q1RWs61SaUZO6REacYttIKKKKyLCiiigAooooAKKKKACiiigAooooAKKKKACiiigAooooAKKKKACiiigAooooAKKKKAEZQwIIyD2Nc3qfgbS9Qy8aNayn+KLgZ/wB3pXS0VdOpOm7wdiZQjJWaPLtS8BapaZa32XSDptOG/I1ztxbTWshjuIXicfwupWvc6guLS3u4zHcwxyoequoIr0aOazWk1c5Z4RP4XY8Por1C+8BaRd5MKPaue8Z4/I/0xXPX3w5vostZ3EU49G+Qn+lehSzGhPd2fmc8sNNdLnIVfsvEGqWGBbX0yqOik7h+RpL3QtT0/P2qymRR/EBuH5is/uR3HUGur93VXRox9+D7M6+0+I2oRYF1bwzjuRlDW9Z/EPS7jAuEmtmP95dw/MV5pRXNUy+hPpb0NY4moutz2iz1rTr8A2t7DJnoA2D+VX68HHByOD6jitKy8Q6rp+BbX0wUdFY7h+RriqZS/sS+83jjP5key0V5zY/Ee9iwt7bRTjuyHY3+H8q6Ox8d6Pd4EkrWzHtKMD8xxXDUwVenvG/odEcRCWzOkprIsilWUMp6gimQXUN0geCVJEPRlbNS1y6pmu5h33hDR9QyXtFjc/xRHYf04rmtQ+G8q5bT7oOOyTDH6ivQaK6KeLrU/hZnOjCe6PFtQ0LUdLJ+12kiKP4wNy/mKz693ZQy4YAg9iKwdU8GaVqWWEP2eU/xw/L+Y6GvTo5qtqi+aOWeEa1gzyirNhqd3pk3m2Vw8TdwDwfqO9bWr+BtS03dJbgXcI/ijHzD6r/hmubIIJUghgcEEYxXpQqUq8fdaa/rocrjKm9rM9B0b4hRS7YdWjETn/lsg+U/Udq7KGeK4iWWB1kRuQynINeG1o6Rr19oswa0lPlk/NE3Kt+H9RXn4jLIy1paPsdNPFNaTPZqKwdA8W2etgR58m5A5ic9foe4rdrxZ05U3yyVmd0ZKSumI6LIhVlDKRyCOtcJ4l8C533WkLg9Wt+x/wB3/Cu9oqqNedGXNBk1KamrM8I8t/M8vY3mZ27cc59Metdl4e8BzTslzqhaFAdyxKfnP1Pb+ddwulWS37XotohcsMGTbz/n3q5iu6vmcpx5YK3cwp4RRd5O4KoVQozgDHJpaKK8w6wooooAKKKKACiiigAooooAKKKKACiiigAooooAKKKKACiiigAooooAKKKKACiiigAooooAKKKKACiiigAooooAKKKKAE/Cs+80LTb8f6TZQufXbg/mK0aKak4u6dhNJ7o5G8+HWmzZNrLNbt6Z3D9awrv4d6lDzbTQ3Cjt9w/rXpdIRXXTx9eHW/qYyw9OXSx4teaFqdhn7TYzIB1YLuH5jiqFe8YrPvNA0y/z9psYXJ/iC4P5jmu2nm388fuMJYP+VnjNFeiX3w4spctZXEsDejfOK5y/8DaxZ5Mca3SDvEefyNd1PHUKml7Pz0OeWHqR6fcYVtdXFpIJLaaSFwc5RsV0eneP9TtMLdKl1GOpYbW/Md65uaGW3kKTxvG4/hcEfzplbTo0qy95J/13IjUnB6Ox6ppnjbStQwkkptpT/DNwPz6V0KurqGVgynoQeteEVpaZr+o6QR9kuWCZ5jb5lP4H+mK82tlSetJ/JnVTxfSSPZ6K47R/iDa3W2LUU+zSHjeOUP49q66KVJo1kidXQ8gqcg15NWjOk7TVjshUjNXix9Y2seGNP1pSZogk3aWPhh/j+NbNFRCcoO8XZjlFSVmjyTXPCF9o2ZNv2i1H/LVByPqO38qwa93ZQykMAQeua4/xF4FhvA9zpQEM/UxdEf6eh/SvYwuZ3tGr9/8AmcVXC21h9x50jtG4aNmVgchgcEV3vhXxo80kdhqm55GO2OYDr7Njv71zml+EtT1O6eEwNAkbbZJJVwB9PU/SvRdE8NWOhR/uE3zEfNM4yx/wHsK0x9eg48r1fS3QnDU6id9kbFFFFeCeiFFFFABRRRQAUUUUAFFFFABRRRQAUUUUAFFFFABRRRQAUUUUAFFFFABRRRQAUUUUAFFFFABRRRQAUUUUAFFFFABRRRQAUUUUAFFFFABTJfM8s+Tt39t/Sn0UAc5N4vh064EGr2k9ox6PjejfQjr+VallrOn6gM2l3DIf7obBH4VNe2NvqNu0F3EssbdmH+cV59r3gS5sGNxpReeFefLz+8T6eo/WuujChW92T5X+BhOVSGqV0elUV47ZeJ9X007YruRlU42S/MB+fNdNp/xIHC6laEeskRz+hrSpltaGsdV5EwxUHvod5QazNO8QabqoH2S7jZj/AAE4b8jWnXDKMou0lY6E01oyvd2NtexlLqCOVT2dQa5fU/h7Y3OXsZXtnPO37y/4iuworSnXqUn7jsTOnGe6PINU8KappWWkgMsQ/wCWsXzD8e4/GsWveMZrB1fwdpmrZfy/s85/5aRDB/EdDXqUM16VV80clTCdYs8nrQ0nXr7RZA1pMfLz80Tco34f4Vb1rwlqGjZkKefbj/lpGOn1HasKvUUqVeHRpnI1Km+zPVtB8Y2Ws7YXIt7o/wDLNjw30Peui7V4R0wQcEdCOMV6P4I1HWLuHZeRNJZgfu7iQ4b6f7Q9/wBa8bG4BUlzwenZnbQxDm+WS1OxoooryzsCiiigAooooAKKKKACiiigAooooAKKKKACiiigAooooAKKKKACiiigAooooAKKKKACiiigAooooAKKKKACiiigAooooAKKKKACiiigAooooAKKKKACiiigAooooA57X/CFlrQMqjyLrtKo6/Ud6831bRL3RZ/LvIiFJwsi/db6H+le01Dc2sN5A0NzEssbDBVhkGu7DY+pR0eqOerh4z1WjPDRkEEEgjoRxit3TPGOq6ZhfO+0RD+CXn8j1Fa/iDwFJBuuNILSR9TAfvD6Hv8ATr9a4x0aNyjqyupwVIwRXtwnRxUej8nujgaqUmen6R4707UNsdyTaTHjDnKn6N/jiumVw6hlIZT0IPWvCK1dI8R6jozj7NMWizzFJyv/ANb8K4a+Vrek/kzop4t7TR7JRXN6H4ysdW2xSH7NcH+Bzw30P9K6TtXj1Kc6b5ZqzO2M4yV0xCAQQRkGuU1/wNbahunsNttcHkgD5HPuO34V1lFOlVnSfNB2FKCmrNHF6B4Citdtxq22eUciIcov19T+ldkqhFCqAAOgFOop1a060uabuEKcYKyQUUUVkWFFFFABRRRQAUUUUAFFFFABRRRQAUUUUAFFFFABRRRQAUUUUAFFFFABRRRQAUUtFACUUtFACUUtFACUUtFACUUtFACUUtFACUUtFACUUtFACUUtFACUUtFACUUtFACUUtFACUUtFACVh674WstcUtIvlXAHyzIMH8fUVuUVUJypvmi7MmUVLRnj2seF9S0Ylp4vMgB4lj5H4+n41j17pdf8e0n+6a8Uuf8Aj7l/3jX0OAxUq8Xz9DzcRSjTegWNhdalciCzhaWQ9gOn1PYV6z4d0+903ThDqF2bl+wI+57Z6n8ayPh7/wAgmb/rpXXdq83McTKVR0raI6cLTSjzBRS0V5x1iUUtFACUUtFACUUtFACUUtFACUUtFACUUtFACUUtFACUUtFACUUtFACUUtFACUUtFACUUtFACUUtFAH/2Q==;" vertex="1" parent="1">
          <mxGeometry x="443" y="390" width="30" height="30" as="geometry" />
        </mxCell>
        <mxCell id="y6lDCbBZrQ7oHGHBkASp-10" value="" style="shape=image;verticalLabelPosition=bottom;labelBackgroundColor=default;verticalAlign=top;aspect=fixed;imageAspect=0;image=data:image/png,iVBORw0KGgoAAAANSUhEUgAAADkAAAA5CAYAAACMGIOFAAAACXBIWXMAAAsTAAALEwEAmpwYAAAAAXNSR0IArs4c6QAAAARnQU1BAACxjwv8YQUAAAi3SURBVHgB3Zt/cFxVFcfPuW93o22SCqUFazs0zY8maUl3N1hRaU0ZR2mb3aQMkXFkBscRZ2yROnXUURFF8fdo1QF/oOKPVmnpEJI0/eUoDSC20CS7SUOaZJO2oZqIgJTUliS7716+b2mWTbKbfT82dODzR+57d+9975537z333HNumGaB/k0VC6USG0inImJeTIrKiGmhYpVPij2CVFSReFmRGmaiM0h7lRQR5ZJPlTWET1OWYcoSkfX+66RL3iCYA4roOrIJGtTKkh9ml95Y2NDRR1nAkZAQhgeqvTWSeSueVEXZRqkWTeP7ChtCj5ADbAsZqfVWKcXbIanXdCWlnlOCu1nRjWQBZuqPxeQdZfs6DpENLAsZqfMtoFH1gGKutVIPvX76fJRW57poD976IbIBE++MCfl1q/NWWCkcqfYH1Bh1WxXQwC21W/wHQi8opneTTaCgbtUkH4sEV91qpZ4pIY25Fwn6vquEasLtFWQRNC68rLn1GeMaQ/U4OeMKaOYdfcHKb5utkFHI1urKOZGg9xEI+hWyC3PTxKWUYvcMJRWZRt7VE/TtMVMyo5D5Qh1EKzeRA4TOrRPXOefz9iIZm1rGmLNKqSayABp/c1/Q97jRERnKpacv6K3H69eQSdDIlD0hSV2YuC5oaRlF8udphXS6nVi4yDpr84W+U82gRNMK2Rfw32u1B6Hqw7pQ6yCunPQS1s9PKufS759S9djyfaG/4StpZAve1BfwfS/drymFPLHRexs0xNfI+svKod5b0J/fT86NjkcHk++L6zvb8eV7Ju5x/ZN4babnySao++X+Wm9KrT9NyBO13qWwMn5M9tDjf5W2HX/jvQeBXyg/dGJ4WkmldkxcavT6nGVW/yYHSJ1/17Wh/Kqp+dOE1CT9CMl8sgF6JGyky5vbXsSy8Vfjmkk9m6qsR3c/iEmEZZOPFzW198czdW4mJzBd7tFyHpiaPUnISE1FACVvJtvvUE8l3eyPJ4q7UpUt2H/sP/gog7qSCc1b3Bw6gi/VQk5gCmA0ViVnTRIS8/5n5ABojccTz4ppAxfzfpuuPIbyS8ziyKQGCf4VOQRW0X0P19UllFhCyN5q/y1ICsgmxjpX2BTe/8abokPIfGZZc6gjXR3sK09IKSPJeUWN7bsF09/JGSu80f7aN95zERbqC+QAmGvGIp9YJ6XLPYLkhzPVwYR80S0oOv0H8R1yCBaxrRPXcSG7qn2rkLyXHBCNab9Pvi+vbxsu2TvzPhBK50xMyaGp+UVNbYcV8WFyAJTampM1FXFDJi6kW6MacoDhvlhxoDVEFsGcHM6ZPzKc8kep15NDYsxVRhoXEu6GOnKAxrSDbDDOfKzgD6dHU/3mcfFOfIQYOYCliMvFA7WrSnQpeskBmlQbC5uTlE6WgGl5HJN9JTkg5qKlQipeSw4Zi45ZHqpmYJJhcohLlzcKXfHV5IyRlGZbFjC0LzkErs4CLEnKRw7A7uplmi0UnSenMF0tYHYtJAcws5tmjxxyCJaSCmFISg7A6r/oVJX3XTQLYK1cQU5husxYQuaRA4zt+FiePRejiWf7ySlKXSYwpzzkEMHig5Rl4HrZCCmvJMcg9oIGjpFj1ObjwZVZaFAyzgyUJKIumGSv4OIdZkprSq2OssqFzbkWBnkVnMwfwJAyRsJcj3T9AOknKQv0BVZVI7lt4h4Oo2ER38apo7B1n9Y0j2SpP23ycSMQks9iGTHVCzrzR0ubwnBwkWE839NaWen2XDlemuN2l7OgqoHqyusLm9v+QQ7o+EjFXASQPgwr5UvM8kl20cmSRzv/m1ymt8b7abMRDpiGz3Fv0L8bQn7MVAWily6MqCJfS/gsXSIi64tylDvPcIItNVMeQh6AMSAHyST4dvNz88RmuoRId94WMimgATqwHaOCTpMFEC2+e2Kf9mZzCp5EDKdvWamDof8v7MulVVdDTkyJP4ZmyQBIhxEKiEpuhH91rpV62AY+IUoPdvZiGEbIElwwN9+2b9YWuazfg6SCrNFT3BjqjscepJIPwWt2N1njU71B3zoM+ijNMliuDM9bIVkEU7HRSC8KyYfRrVaFNBRRgZVg25uNpmJxIROLTV/QfxRq5X1kAZiEDVgfZ385kTzfcBqTNbpKmkLXGBeJUBkafD8mtSUh57D44pLGiy7+WWSg2lsMQ8SSkAgXJoJOCb+r59y8PZD0JL0NwAw6tbwx/JeJ+4SQRnBUF5d2oc8aOn0VozKhLSbFQsoa2w+hn1voLQxs8ccQ0N2VnDctfM0abYG9104mXA+vKnVnb9D7P5plMB8vN6nFR0gXt0/NTGnKG1Y+fD+/obcen4VGnRYVS7tf6Q34oW2V9TmqDOtJnSKbMIlFyoZDWSq1vXRveFuq39KethCxkW26J88nFL2fLKAEPQTN9g2yCYb/N7EptyikOppOQIO0pz+KD/SPuT1iPXqmmyzAkhx62Nj8gcTXedY9cnbdjE+kDJypW/zOV0cXtKDkajKHlOPsKz3Y3kkW6QlUFGC4DsCXa2rbDwV55MI5tSHTJt70KUmYfT/FY7eaK61C+fPkmqt2dJr2gHfVled6xnKM2IcZQxwRBPplUfTcNsaIy1TY0lFQhNy3ICJtmEu5mcpC43dIoWrNHNuM3FSxmGLao6hzbcbnShqXmryzrLHj12QSy+dde2+6ZpmIaX/ComvG1zqEhu/SXfTz8vrQNDdLZL1vAbl5MzyGn8dtpk04XklPyrHo50oPdlmaCvZPLge9n5DE97JZhxLRP5GMQnO+Ar/SHNRdhH3iSiOmnqkqGMQsvaOkKbyPbODsDPpnKt19Q9GPM2t34UnFlF2Mg0ztOqlf/F+KXdc2t10gm2Ttvwl6Av4bBOk1GFMBKEc7R2Xihht6bQj1H9SleqysOdxCWSBrQibTXV3hF5p2PQIt78GtTylegnRJshMKeecQN3we87EHw7ZPFzyI+ydKGsKOo8tTeQ3/qCqbzAb7IAAAAABJRU5ErkJggg==;" vertex="1" parent="1">
          <mxGeometry x="360" y="505.8" width="57" height="57" as="geometry" />
        </mxCell>
        <mxCell id="y6lDCbBZrQ7oHGHBkASp-11" value="" style="image;aspect=fixed;html=1;points=[];align=center;fontSize=12;image=img/lib/azure2/other/Grafana.svg;" vertex="1" parent="1">
          <mxGeometry x="435" y="509" width="68" height="52.800000000000004" as="geometry" />
        </mxCell>
        <mxCell id="y6lDCbBZrQ7oHGHBkASp-12" value="GitHub&amp;nbsp;&lt;br&gt;Repository" style="shape=image;html=1;verticalAlign=top;verticalLabelPosition=bottom;labelBackgroundColor=#ffffff;imageAspect=0;aspect=fixed;image=https://cdn4.iconfinder.com/data/icons/ionicons/512/icon-social-github-128.png" vertex="1" parent="1">
          <mxGeometry x="50" y="420" width="70" height="70" as="geometry" />
        </mxCell>
        <mxCell id="y6lDCbBZrQ7oHGHBkASp-13" value="" style="image;aspect=fixed;html=1;points=[];align=center;fontSize=12;image=img/lib/azure2/management_governance/Policy.svg;" vertex="1" parent="1">
          <mxGeometry x="262.93" y="390" width="28.13" height="30" as="geometry" />
        </mxCell>
        <mxCell id="y6lDCbBZrQ7oHGHBkASp-14" value="" style="image;aspect=fixed;html=1;points=[];align=center;fontSize=12;image=img/lib/azure2/management_governance/Policy.svg;" vertex="1" parent="1">
          <mxGeometry x="476" y="390" width="28.13" height="30" as="geometry" />
        </mxCell>
        <mxCell id="y6lDCbBZrQ7oHGHBkASp-15" value="" style="shape=image;verticalLabelPosition=bottom;labelBackgroundColor=default;verticalAlign=top;aspect=fixed;imageAspect=0;image=data:image/png,iVBORw0KGgoAAAANSUhEUgAAACAAAAAdCAYAAADLnm6HAAAAAXNSR0IArs4c6QAAAARnQU1BAACxjwv8YQUAAAAJcEhZcwAADsMAAA7DAcdvqGQAAAPoSURBVEhL7ZVbTBxlFMd/sxf2Au6yXRZaC7allFKoYo2iqZWaGmq0mqYxakxqTJQ3o0/EB/VJE6OPVhNjTOyDGhMfjNoHTTSRpCWiqUK1Ka1AYSNLWejCws7s7H39ZneG67KXh4YH/W2+25md7/vPOWfOSFkBW4hJH7eM/wVsuYCKkvDs24NcHp7E7w9y6tjT7L2/hv2HnXz54QUCE/MoYXik+2F232uj9UEHNkfp56tIwJlXzyNPW1GiCbyOXcRVE74WC0uxMWKhKsKRCDtdHchykrZuB0+97tPv3JyKQrBaqSZ7WXtu0DqjGX1pKhIQU1XSmVRubpKE+yTRCSJRWRejrfO2fF+aigQcOdGKrVFBrQqy74iD597x0XtmB4e6dxIyTTAVucaBow5Ov9dQlvs1SubA8I+z9H//FzdvqDQ1NNPVcwf7DjsY+mma3wfGuDmt0t5yJ+0PbaNV2AfOjXNR2INTER7rOc4eLSGFfTNKCvj0rQFuXJJw2xsIzoeoMe8gnkxTf3eAhesWUgkJK25IOamul0jZr6MErSzJci4hFSVFU2cVz7+7Xd9xLWWFwIi1hjGXjFiLwbi8fE2MGfFY+bXRClOWAMNJWe23Zk7uoIyYaPPla/mFvjZaYUoKuOueZpKuOUZCg9TWWzjW66Hvqyba72tEtv/DyOxv3L7fxpN9Xl4520jLIR9xZxB/eIRdnXZOvla3qfs1KipEF86NMvjzOKNXA/S+9Cx7umzUNVk5/90oY5eDzM+kOP5EF83CXl1r1u8qTtkC/OL1/+TFH7DLLhZlhSb3wVzFW+qwoV77BZfkRlVFwrm1SpjC82g1R1/20lGlb7AJJUPwZwLeFzW+bw7iVU5RgEy5eGtx1UYlAzUuD3ar9qqt5MKlOLwZgjdE61e1/xemqICvZfhIHK5tkKt/uWQW+b9q1BNfx7CtGK+IB/h4ET6L6IZ1FBXwzWKWmbS+EEScWf6OThCYn0TdZiJw0s3MC17CNRmGAn8QWBD2OgvTp9wsnBC1QScmvPLtJgKK5sAzQwmS2zcG0STckbHoi1WYrs6RaStcgp3+OF88YNNXKxT1gHMijn0shjmc/wAZFDpcY/3hUiqLZTaJ/UqU2hkRiwIU9cAH/QoX/UkwixLrEWXXbSZzm5m0aFmn0L7uTu1ASWSlOZLONctiCtNSPoanuxz0HNjogaIClESWz39VGZ5KEhXz1WQtItG0V91IuLQ4PLlxq7YGC48ftNHZaNUtaym7DgTCaSZDacbn0kyJeURklhzPoMSFm4WHqm0SNaJ5hGd2e83srTPT4rPk7MUoW8CtomQhutX81wXAv3AUqi4eom/FAAAAAElFTkSuQmCC;" vertex="1" parent="1">
          <mxGeometry x="510" y="290.99" width="35.87" height="32.51" as="geometry" />
        </mxCell>
        <mxCell id="y6lDCbBZrQ7oHGHBkASp-16" value="Azure Arc&lt;br style=&quot;font-size: 10px;&quot;&gt;enabled k8s" style="endArrow=classic;html=1;rounded=0;dashed=1;strokeColor=#4D4D4D;fontSize=10;" edge="1" parent="1">
          <mxGeometry relative="1" as="geometry">
            <mxPoint x="680" y="300" as="sourcePoint" />
            <mxPoint x="550" y="300" as="targetPoint" />
            <mxPoint as="offset" />
          </mxGeometry>
        </mxCell>
        <mxCell id="y6lDCbBZrQ7oHGHBkASp-19" value="" style="edgeStyle=segmentEdgeStyle;endArrow=classic;html=1;curved=0;rounded=0;endSize=8;startSize=8;" edge="1" parent="1">
          <mxGeometry width="50" height="50" relative="1" as="geometry">
            <mxPoint x="244" y="429" as="sourcePoint" />
            <mxPoint x="124" y="459" as="targetPoint" />
            <Array as="points">
              <mxPoint x="244" y="459" />
            </Array>
          </mxGeometry>
        </mxCell>
        <mxCell id="y6lDCbBZrQ7oHGHBkASp-20" value="" style="edgeStyle=segmentEdgeStyle;endArrow=classic;html=1;curved=0;rounded=0;endSize=8;startSize=8;strokeColor=none;" edge="1" parent="1" source="y6lDCbBZrQ7oHGHBkASp-22" target="y6lDCbBZrQ7oHGHBkASp-26">
          <mxGeometry width="50" height="50" relative="1" as="geometry">
            <mxPoint x="470" y="430" as="sourcePoint" />
            <mxPoint x="240" y="460" as="targetPoint" />
            <Array as="points" />
          </mxGeometry>
        </mxCell>
        <mxCell id="y6lDCbBZrQ7oHGHBkASp-23" value="" style="edgeStyle=segmentEdgeStyle;endArrow=classic;html=1;curved=0;rounded=0;endSize=8;startSize=8;strokeColor=none;" edge="1" parent="1" source="y6lDCbBZrQ7oHGHBkASp-24" target="y6lDCbBZrQ7oHGHBkASp-22">
          <mxGeometry width="50" height="50" relative="1" as="geometry">
            <mxPoint x="470" y="430" as="sourcePoint" />
            <mxPoint x="240" y="460" as="targetPoint" />
            <Array as="points">
              <mxPoint x="470" y="460" />
            </Array>
          </mxGeometry>
        </mxCell>
        <mxCell id="y6lDCbBZrQ7oHGHBkASp-22" value="" style="line;strokeWidth=1;html=1;verticalAlign=middle;" vertex="1" parent="1">
          <mxGeometry x="244" y="454" width="216" height="10" as="geometry" />
        </mxCell>
        <mxCell id="y6lDCbBZrQ7oHGHBkASp-25" value="" style="edgeStyle=segmentEdgeStyle;endArrow=classic;html=1;curved=0;rounded=0;endSize=8;startSize=8;strokeColor=none;" edge="1" parent="1" target="y6lDCbBZrQ7oHGHBkASp-24">
          <mxGeometry width="50" height="50" relative="1" as="geometry">
            <mxPoint x="470" y="430" as="sourcePoint" />
            <mxPoint x="470" y="454" as="targetPoint" />
            <Array as="points" />
          </mxGeometry>
        </mxCell>
        <mxCell id="y6lDCbBZrQ7oHGHBkASp-24" value="" style="line;strokeWidth=1;direction=south;html=1;perimeter=backbonePerimeter;points=[];outlineConnect=0;" vertex="1" parent="1">
          <mxGeometry x="457" y="430" width="4" height="30" as="geometry" />
        </mxCell>
        <mxCell id="y6lDCbBZrQ7oHGHBkASp-26" value="&lt;font style=&quot;font-size: 10px;&quot;&gt;Pull k8s&lt;br&gt;resources&lt;/font&gt;" style="text;html=1;strokeColor=none;fillColor=default;align=center;verticalAlign=middle;whiteSpace=wrap;rounded=0;gradientColor=none;" vertex="1" parent="1">
          <mxGeometry x="223.93" y="444" width="46.07" height="30" as="geometry" />
        </mxCell>
        <mxCell id="y6lDCbBZrQ7oHGHBkASp-28" value="" style="shape=actor;whiteSpace=wrap;html=1;" vertex="1" parent="1">
          <mxGeometry x="616" y="485" width="40" height="60" as="geometry" />
        </mxCell>
        <mxCell id="y6lDCbBZrQ7oHGHBkASp-30" value="" style="shape=actor;whiteSpace=wrap;html=1;" vertex="1" parent="1">
          <mxGeometry x="636" y="499.3" width="40" height="60" as="geometry" />
        </mxCell>
        <mxCell id="y6lDCbBZrQ7oHGHBkASp-31" value="Ops teams" style="text;html=1;strokeColor=none;fillColor=default;align=center;verticalAlign=middle;whiteSpace=wrap;rounded=0;gradientColor=none;" vertex="1" parent="1">
          <mxGeometry x="602.87" y="560.8" width="90" height="30" as="geometry" />
        </mxCell>
        <mxCell id="y6lDCbBZrQ7oHGHBkASp-33" value="Centralized &lt;br style=&quot;font-size: 10px;&quot;&gt;monitoring" style="endArrow=classic;html=1;rounded=0;dashed=1;strokeColor=#4D4D4D;fontSize=10;" edge="1" parent="1">
          <mxGeometry relative="1" as="geometry">
            <mxPoint x="607" y="534" as="sourcePoint" />
            <mxPoint x="509" y="533.8" as="targetPoint" />
            <mxPoint as="offset" />
          </mxGeometry>
        </mxCell>
        <mxCell id="y6lDCbBZrQ7oHGHBkASp-37" value="" style="endArrow=classic;html=1;rounded=0;" edge="1" parent="1">
          <mxGeometry width="50" height="50" relative="1" as="geometry">
            <mxPoint x="350" y="250" as="sourcePoint" />
            <mxPoint x="310" y="280" as="targetPoint" />
          </mxGeometry>
        </mxCell>
        <mxCell id="y6lDCbBZrQ7oHGHBkASp-39" value="" style="endArrow=classic;html=1;rounded=0;" edge="1" parent="1">
          <mxGeometry width="50" height="50" relative="1" as="geometry">
            <mxPoint x="427" y="250" as="sourcePoint" />
            <mxPoint x="457" y="280" as="targetPoint" />
          </mxGeometry>
        </mxCell>
        <mxCell id="y6lDCbBZrQ7oHGHBkASp-40" value="" style="endArrow=none;html=1;rounded=0;exitX=1.065;exitY=0.5;exitDx=0;exitDy=0;exitPerimeter=0;entryX=-0.073;entryY=0.5;entryDx=0;entryDy=0;entryPerimeter=0;" edge="1" parent="1" source="y6lDCbBZrQ7oHGHBkASp-42" target="y6lDCbBZrQ7oHGHBkASp-36">
          <mxGeometry width="50" height="50" relative="1" as="geometry">
            <mxPoint x="354" y="385" as="sourcePoint" />
            <mxPoint x="404" y="335" as="targetPoint" />
          </mxGeometry>
        </mxCell>
        <mxCell id="y6lDCbBZrQ7oHGHBkASp-43" value="" style="endArrow=none;html=1;rounded=0;exitX=1.065;exitY=0.5;exitDx=0;exitDy=0;exitPerimeter=0;entryX=-0.073;entryY=0.5;entryDx=0;entryDy=0;entryPerimeter=0;" edge="1" parent="1" source="y6lDCbBZrQ7oHGHBkASp-34" target="y6lDCbBZrQ7oHGHBkASp-42">
          <mxGeometry width="50" height="50" relative="1" as="geometry">
            <mxPoint x="348" y="360" as="sourcePoint" />
            <mxPoint x="419" y="360" as="targetPoint" />
          </mxGeometry>
        </mxCell>
        <mxCell id="y6lDCbBZrQ7oHGHBkASp-42" value="&lt;font style=&quot;font-size: 10px;&quot;&gt;Scrape&lt;br&gt;metrics&lt;/font&gt;" style="text;html=1;strokeColor=none;fillColor=default;align=center;verticalAlign=middle;whiteSpace=wrap;rounded=0;" vertex="1" parent="1">
          <mxGeometry x="362" y="346.5" width="46" height="30" as="geometry" />
        </mxCell>
        <mxCell id="y6lDCbBZrQ7oHGHBkASp-44" value="" style="endArrow=none;html=1;rounded=0;exitX=0.526;exitY=-0.172;exitDx=0;exitDy=0;exitPerimeter=0;" edge="1" parent="1">
          <mxGeometry width="50" height="50" relative="1" as="geometry">
            <mxPoint x="386.98199999999997" y="495.99599999999987" as="sourcePoint" />
            <mxPoint x="387" y="380" as="targetPoint" />
          </mxGeometry>
        </mxCell>
        <mxCell id="y6lDCbBZrQ7oHGHBkASp-47" value="AKS" style="text;html=1;strokeColor=none;fillColor=none;align=center;verticalAlign=middle;whiteSpace=wrap;rounded=0;" vertex="1" parent="1">
          <mxGeometry x="210" y="290" width="60" height="30" as="geometry" />
        </mxCell>
        <mxCell id="y6lDCbBZrQ7oHGHBkASp-48" value="ARO" style="text;html=1;strokeColor=none;fillColor=none;align=center;verticalAlign=middle;whiteSpace=wrap;rounded=0;" vertex="1" parent="1">
          <mxGeometry x="419" y="290.99" width="60" height="30" as="geometry" />
        </mxCell>
      </root>
    </mxGraphModel>
  </diagram>
</mxfile>
